<svg width="53" height="35" viewBox="0 0 53 35" fill="none" xmlns="http://www.w3.org/2000/svg">
<path opacity="0.3" d="M30.763 6.17723C35.1256 7.50026 38.9769 9.88367 41.8742 13.0535C44.7714 16.2233 46.597 20.0508 47.141 24.096C40.4584 29.9504 30.7197 31.9601 21.7141 29.1994C12.7084 26.4388 6.47409 19.5326 5.33602 11.2807C8.60101 8.40316 12.7192 6.39771 17.2172 5.49491C21.7152 4.59211 26.4104 4.82861 30.763 6.17723ZM32.4082 1.99137C20.5587 -1.64107 7.8809 1.76583 0.169645 9.69697C0.65823 20.1417 8.21931 29.7529 20.0688 33.3853C31.9183 37.0177 44.5961 33.6108 52.3074 25.6797C51.8188 15.2349 44.2577 5.62381 32.4082 1.99137ZM28.2951 12.456C29.8664 12.9377 31.1567 13.9509 31.8821 15.2728C32.6076 16.5946 32.7087 18.1169 32.1632 19.5046C31.6178 20.8923 30.4705 22.0318 28.9737 22.6724C27.4769 23.3131 25.7533 23.4024 24.1819 22.9207C22.6106 22.439 21.3203 21.4257 20.5949 20.1039C19.8694 18.782 19.7683 17.2598 20.3138 15.8721C20.8592 14.4844 22.0065 13.3449 23.5033 12.7043C25.0001 12.0636 26.7237 11.9743 28.2951 12.456ZM29.9403 8.27016C24.063 6.46847 17.6141 9.22868 15.574 14.4191C13.5339 19.6096 16.6593 25.3048 22.5367 27.1065C28.414 28.9082 34.8629 26.148 36.903 20.9575C38.9432 15.7671 35.8177 10.0719 29.9403 8.27016Z" fill="#27BBA2"/>
</svg>
