<svg width="19" height="11" viewBox="0 0 19 11" fill="none" xmlns="http://www.w3.org/2000/svg">
<path d="M18.624 2.17972L10.2018 10.7212C10.1016 10.8226 9.99296 10.8945 9.87599 10.9371C9.75901 10.9797 9.63369 11.0007 9.5 11C9.36631 11 9.24098 10.979 9.12401 10.9371C9.00704 10.8952 8.89842 10.8232 8.79815 10.7212L0.350923 2.17972C0.116974 1.94316 0 1.64746 0 1.29262C0 0.937786 0.12533 0.63364 0.375989 0.380184C0.626649 0.126728 0.919085 0 1.2533 0C1.58751 0 1.87995 0.126728 2.13061 0.380184L9.5 7.83179L16.8694 0.380184C17.1033 0.143625 17.3918 0.0253448 17.7347 0.0253448C18.0776 0.0253448 18.374 0.152073 18.624 0.405529C18.8747 0.658985 19 0.954683 19 1.29262C19 1.63057 18.8747 1.92626 18.624 2.17972Z" fill="#FAFAFA"/>
</svg>
