<svg width="266" height="116" viewBox="0 0 266 116" fill="none" xmlns="http://www.w3.org/2000/svg">
<g opacity="0.8">
<path d="M36.5182 104.994L37.5309 102.079C35.3828 101.312 33.2347 100.391 31.2093 99.348L29.767 102.11C31.9458 103.245 34.2166 104.227 36.5182 105.025L36.5182 104.994ZM23.5067 98.2432L25.2865 95.7268C23.4146 94.4073 21.604 92.9343 19.9162 91.3692L17.7988 93.6401C19.6094 95.2972 21.512 96.8623 23.5067 98.2432ZM12.766 88.3311L15.1597 86.3364C13.6867 84.5565 12.3057 82.6846 11.0783 80.7513L8.46978 82.4084C9.78936 84.4645 11.2317 86.4592 12.7967 88.3004L12.766 88.3311ZM4.91003 75.9947L7.73321 74.6751C6.75121 72.5884 5.92266 70.4096 5.24752 68.2307L2.30154 69.1514C3.00738 71.4529 3.89736 73.7545 4.94073 75.9947L4.91003 75.9947ZM0.613764 62.0012L3.68252 61.5102C3.55978 60.6509 3.43698 59.8224 3.34494 58.9631C3.19149 57.5515 3.13015 56.0785 3.09945 54.6362L-4.77645e-06 54.6362C-4.91327e-06 56.2012 0.092097 57.7356 0.245539 59.27C0.337611 60.1906 0.460322 61.0805 0.613764 62.0012ZM3.52905 47.7621C3.8359 45.4913 4.29626 43.2204 4.91003 40.9802L1.93332 40.1516C1.28888 42.5146 0.797848 44.9389 0.460292 47.3325L3.52905 47.7314L3.52905 47.7621ZM87.521 41.4712C89.485 41.4712 91.5717 40.8881 93.4437 39.8141L91.8786 37.1442C90.0374 38.2183 87.8585 38.6479 86.1707 38.249L85.4649 41.2564C86.1401 41.4098 86.8152 41.5019 87.521 41.5019L87.521 41.4712ZM230.955 38.1876C233.41 38.1876 235.865 38.0342 238.197 37.8194L237.921 34.7199C235.65 34.9347 233.318 35.0268 230.924 35.0575L230.924 38.1569L230.955 38.1876ZM223.774 38.0342L223.958 34.9347C221.687 34.812 219.324 34.5972 216.961 34.3517L216.624 37.4204C219.048 37.6966 221.472 37.9114 223.805 38.0342L223.774 38.0342ZM245.439 36.8681C247.864 36.4384 250.257 35.8861 252.528 35.2416L251.669 32.2649C249.49 32.8787 247.188 33.4004 244.887 33.83L245.439 36.8681ZM209.443 36.4077L209.934 33.339C207.602 32.94 205.3 32.5104 202.998 32.0194L202.354 35.0575C204.717 35.5485 207.049 36.0088 209.412 36.3771L209.443 36.4077ZM79.266 36.0702L81.8438 34.3517C80.8618 32.8787 80.3401 31.0067 80.3401 28.9507L80.3401 28.4903L77.2406 28.3676L77.2406 28.9507C77.2406 31.6205 77.9465 34.0755 79.266 36.0702ZM7.21158 34.4437C8.10153 32.3263 9.14493 30.2395 10.3111 28.2448L7.64117 26.6798C6.41366 28.7972 5.30893 31.0067 4.3883 33.2469L7.24231 34.4437L7.21158 34.4437ZM98.6299 33.5538C98.6913 33.339 98.7526 33.1242 98.814 32.8787C99.0288 31.8967 99.1516 30.9147 99.1516 29.902C99.1516 28.521 98.9368 27.0787 98.5378 25.6364L95.5611 26.4956C95.8987 27.6618 96.0521 28.7972 96.0521 29.902C96.0521 30.6692 95.9601 31.467 95.8066 32.2035C95.7759 32.357 95.7453 32.5104 95.6839 32.6638L98.6606 33.5538L98.6299 33.5538ZM195.326 33.4617L196.063 30.4544C193.761 29.8713 191.491 29.2575 189.22 28.6438L188.36 31.6205C190.662 32.2649 192.964 32.8787 195.296 33.4617L195.326 33.4617ZM259.402 32.8787C261.673 31.958 263.883 30.9147 266 29.7792L264.527 27.048C262.502 28.1528 260.415 29.1348 258.236 29.994L259.402 32.8787ZM181.548 29.5951L182.468 26.6491C180.198 25.9433 177.957 25.2375 175.686 24.501L174.735 27.447C177.006 28.1835 179.277 28.8893 181.548 29.5951ZM167.953 25.2375L168.904 22.2915C166.634 21.555 164.393 20.8184 162.123 20.1126L161.171 23.0586C163.442 23.7645 165.682 24.501 167.953 25.2375ZM14.1776 22.5063C15.5893 20.665 17.1237 18.9158 18.7502 17.3201L16.5713 15.1412C14.8528 16.8597 13.2264 18.701 11.7227 20.6343L14.1776 22.5369L14.1776 22.5063ZM82.0586 22.3835C82.703 21.2174 83.4702 20.2047 84.3602 19.3147C84.9739 18.7317 85.649 18.1793 86.3549 17.6576L84.5443 15.1412C83.7157 15.7243 82.9179 16.3994 82.212 17.1052C81.1073 18.1793 80.1253 19.4682 79.3581 20.8798L82.0893 22.3835L82.0586 22.3835ZM154.389 20.9105L155.279 17.9338C152.978 17.228 150.707 16.5529 148.405 15.9084L147.577 18.8851C149.847 19.5296 152.118 20.2047 154.389 20.8798L154.389 20.9105ZM92.5844 20.665L95.1008 18.8544C93.8119 17.0746 92.2162 15.3254 90.4363 13.6989L90.0681 13.3614L88.012 15.6936L88.3496 16.0005C90.0067 17.5042 91.4183 19.0693 92.6151 20.6957L92.5844 20.665ZM140.764 17.0746L141.531 14.0672C139.199 13.4841 136.867 12.9317 134.534 12.4407L133.89 15.4788C136.192 15.9698 138.493 16.4915 140.764 17.0746ZM92.3389 14.7116C94.3336 14.0365 96.5125 13.5762 98.9982 13.2386L98.5992 10.1699C95.8987 10.5381 93.5358 11.0598 91.3569 11.7656L92.3389 14.7116ZM126.955 14.1592L127.446 11.0905C125.083 10.6915 122.689 10.3847 120.295 10.1392L119.958 13.2079C122.29 13.4534 124.622 13.7603 126.924 14.1592L126.955 14.1592ZM23.9977 12.7476C25.839 11.3667 27.8029 10.1085 29.7976 9.00372L28.2939 6.27252C26.1765 7.43865 24.0897 8.78891 22.1257 10.2619L23.9977 12.7476ZM112.961 12.7476L113.084 9.64816C110.69 9.5561 108.266 9.52541 105.841 9.64816L105.934 12.7476C108.266 12.6862 110.629 12.6862 112.961 12.7476ZM82.5189 11.5201L84.2067 8.91166C82.1814 7.59209 80.0332 6.36459 77.793 5.32121L76.4734 8.11378C78.5602 9.09578 80.5856 10.2312 82.5189 11.4894L82.5189 11.5201ZM36.0579 6.18046C38.1753 5.38259 40.4156 4.73814 42.6864 4.24714L42.042 1.20907C39.6484 1.73076 37.2547 2.40589 34.9838 3.26514L36.0579 6.18046ZM70.0598 5.62809L71.0111 2.68208C68.7095 1.94558 66.3159 1.36251 63.8916 0.932884L63.3392 3.97095C65.61 4.36989 67.8809 4.95296 70.0598 5.62809ZM49.5298 3.26514C51.8314 3.08101 54.1329 3.05033 56.4652 3.17308L56.6186 0.0736322C54.1943 -0.0491184 51.7393 -0.0184318 49.2842 0.165693L49.5298 3.26514Z" fill="#1E6A5D"/>
<path d="M32.8024 115.948L31.7284 113.063L46.0595 107.754L39.7379 93.8528L42.5612 92.564L50.2637 109.534L32.8024 115.948Z" fill="#1E6A5D"/>
</g>
</svg>
