<svg width="204" height="68" viewBox="0 0 204 68" fill="none" xmlns="http://www.w3.org/2000/svg">
<path d="M161.756 27.5499C152.637 19.5392 139.752 17.3576 129.451 15.3053C96.573 8.75506 62.5186 3.45919 29.7658 8.11808C19.5756 9.56757 5.08119 12.5193 2.18915 27.4545C-1.29061 45.4249 14.7355 57.0719 26.1753 60.7425C51.4255 68.8443 78.8248 67.3667 104.034 66.0032C130.843 64.5533 159.421 62.71 184.811 51.999C190.622 49.5476 199.253 44.4937 202.579 37.1382C204.971 31.8493 199.849 28.6948 196.72 26.7625C180.307 16.6256 161.979 8.90999 144.471 3.70515C129.966 -0.607265 116.427 1.31035 102.18 3.67078" stroke="#27BBA2" stroke-width="1.5" stroke-linecap="round"/>
</svg>
