<svg width="57" height="44" viewBox="0 0 57 44" fill="none" xmlns="http://www.w3.org/2000/svg">
<path d="M5.51283 39.8499C2.25117 36.3856 0.5 32.5001 0.5 26.2016C0.5 15.1183 8.2805 5.18445 19.595 0.272949L22.4228 4.63662C11.862 10.3493 9.79733 17.7624 8.974 22.4364C10.6745 21.5561 12.9007 21.2489 15.0825 21.4516C20.7952 21.9804 25.2982 26.6703 25.2982 32.5001C25.2982 35.4396 24.1305 38.2587 22.0519 40.3372C19.9734 42.4157 17.1543 43.5835 14.2148 43.5835C12.5892 43.5692 10.9827 43.2318 9.48878 42.5909C7.99483 41.9499 6.64329 41.0182 5.51283 39.8499ZM37.1795 39.8499C33.9178 36.3856 32.1667 32.5001 32.1667 26.2016C32.1667 15.1183 39.9472 5.18445 51.2617 0.272949L54.0895 4.63662C43.5287 10.3493 41.464 17.7624 40.6407 22.4364C42.3412 21.5561 44.5673 21.2489 46.7492 21.4516C52.4618 21.9804 56.9648 26.6703 56.9648 32.5001C56.9648 35.4396 55.7971 38.2587 53.7186 40.3372C51.6401 42.4157 48.821 43.5835 45.8815 43.5835C44.2559 43.5692 42.6494 43.2318 41.1554 42.5909C39.6615 41.9499 38.31 41.0182 37.1795 39.8499Z" fill="#27BBA2"/>
</svg>
