<svg width="266" height="111" viewBox="0 0 266 111" fill="none" xmlns="http://www.w3.org/2000/svg">
<g opacity="0.8">
<path d="M229.482 104.995L228.469 102.079C230.617 101.312 232.765 100.391 234.791 99.348L236.233 102.11C234.054 103.245 231.783 104.227 229.482 105.025V104.995ZM242.493 98.2432L240.713 95.7269C242.585 94.4073 244.396 92.9343 246.084 91.3692L248.201 93.6401C246.391 95.2972 244.488 96.8623 242.493 98.2432ZM253.234 88.3311L250.84 86.3364C252.313 84.5566 253.694 82.6846 254.922 80.7513L257.53 82.4084C256.211 84.4645 254.768 86.4592 253.203 88.3005L253.234 88.3311ZM261.09 75.9947L258.267 74.6752C259.249 72.5884 260.077 70.4096 260.752 68.2308L263.698 69.1514C262.993 71.453 262.103 73.7545 261.059 75.9947H261.09ZM265.386 62.0012L262.317 61.5102C262.44 60.6509 262.563 59.8224 262.655 58.9631C262.809 57.5515 262.87 56.0785 262.901 54.6362H266C266 56.2012 265.908 57.7356 265.754 59.27C265.662 60.1906 265.54 61.0806 265.386 62.0012ZM262.471 47.7622C262.164 45.4913 261.704 43.2204 261.09 40.9802L264.067 40.1516C264.711 42.5146 265.202 44.9389 265.54 47.3325L262.471 47.7315V47.7622ZM178.479 41.4712C176.515 41.4712 174.428 40.8881 172.556 39.8141L174.121 37.1443C175.963 38.2183 178.141 38.6479 179.829 38.249L180.535 41.2564C179.86 41.4098 179.185 41.5019 178.479 41.5019V41.4712ZM35.0452 38.1876C32.5902 38.1876 30.1352 38.0342 27.8029 37.8194L28.0792 34.7199C30.35 34.9347 32.6823 35.0268 35.0759 35.0575V38.1569L35.0452 38.1876ZM42.2261 38.0342L42.042 34.9347C44.3129 34.812 46.6758 34.5972 49.0388 34.3517L49.3764 37.4204C46.952 37.6966 44.5277 37.9114 42.1954 38.0342H42.2261ZM20.5607 36.8681C18.1364 36.4384 15.7427 35.8861 13.4718 35.2416L14.3311 32.2649C16.5099 32.8787 18.8115 33.4004 21.1131 33.83L20.5607 36.8681ZM56.5572 36.4077L56.0662 33.339C58.3985 32.9401 60.7 32.5104 63.0016 32.0194L63.6461 35.0575C61.2831 35.5485 58.9509 36.0088 56.5879 36.3771L56.5572 36.4077ZM186.734 36.0702L184.156 34.3517C185.138 32.8787 185.66 31.0067 185.66 28.9507V28.4904L188.759 28.3676V28.9507C188.759 31.6205 188.054 34.0755 186.734 36.0702ZM258.788 34.4437C257.898 32.3263 256.855 30.2395 255.689 28.2449L258.359 26.6798C259.586 28.7972 260.691 31.0067 261.612 33.2469L258.758 34.4437H258.788ZM167.37 33.5538C167.309 33.339 167.247 33.1242 167.186 32.8787C166.971 31.8967 166.848 30.9147 166.848 29.902C166.848 28.521 167.063 27.0787 167.462 25.6364L170.439 26.4957C170.101 27.6618 169.948 28.7972 169.948 29.902C169.948 30.6692 170.04 31.4671 170.193 32.2036C170.224 32.357 170.255 32.5104 170.316 32.6639L167.339 33.5538H167.37ZM70.6735 33.4617L69.937 30.4544C72.2386 29.8713 74.5095 29.2575 76.7803 28.6438L77.6396 31.6205C75.338 32.2649 73.0365 32.8787 70.7042 33.4617H70.6735ZM6.59786 32.8787C4.32698 31.958 2.11744 30.9147 0 29.7792L1.47304 27.048C3.49842 28.1528 5.58514 29.1348 7.76396 29.994L6.59786 32.8787ZM84.4522 29.5951L83.5316 26.6491C85.8025 25.9433 88.0427 25.2375 90.3136 24.501L91.2649 27.447C88.994 28.1835 86.7231 28.8893 84.4522 29.5951ZM98.0468 25.2375L97.0955 22.2915C99.3664 21.555 101.607 20.8185 103.877 20.1126L104.829 23.0587C102.558 23.7645 100.318 24.501 98.0468 25.2375ZM251.822 22.5063C250.411 20.665 248.876 18.9158 247.25 17.3201L249.429 15.1413C251.147 16.8598 252.774 18.701 254.277 20.6343L251.822 22.537V22.5063ZM183.941 22.3835C183.297 21.2174 182.53 20.2047 181.64 19.3148C181.026 18.7317 180.351 18.1793 179.645 17.6576L181.456 15.1413C182.284 15.7243 183.082 16.3994 183.788 17.1053C184.893 18.1793 185.875 19.4682 186.642 20.8798L183.911 22.3835H183.941ZM111.611 20.9105L110.721 17.9338C113.022 17.228 115.293 16.5529 117.595 15.9084L118.423 18.8851C116.153 19.5296 113.882 20.2047 111.611 20.8798V20.9105ZM173.416 20.665L170.899 18.8545C172.188 17.0746 173.784 15.3254 175.564 13.6989L175.932 13.3614L177.988 15.6936L177.65 16.0005C175.993 17.5042 174.582 19.0693 173.385 20.6957L173.416 20.665ZM125.236 17.0746L124.469 14.0672C126.801 13.4841 129.133 12.9317 131.466 12.4407L132.11 15.4788C129.808 15.9698 127.507 16.4915 125.236 17.0746ZM173.661 14.7116C171.666 14.0365 169.488 13.5762 167.002 13.2386L167.401 10.1699C170.101 10.5381 172.464 11.0598 174.643 11.7656L173.661 14.7116ZM139.045 14.1592L138.554 11.0905C140.917 10.6916 143.311 10.3847 145.705 10.1392L146.042 13.2079C143.71 13.4534 141.378 13.7603 139.076 14.1592H139.045ZM242.002 12.7476C240.161 11.3667 238.197 10.1085 236.202 9.00374L237.706 6.27254C239.824 7.43867 241.91 8.78893 243.874 10.2619L242.002 12.7476ZM153.039 12.7476L152.916 9.64818C155.31 9.55611 157.734 9.52543 160.159 9.64818L160.066 12.7476C157.734 12.6862 155.371 12.6862 153.039 12.7476ZM183.481 11.5201L181.793 8.91168C183.819 7.59211 185.967 6.36461 188.207 5.32123L189.527 8.1138C187.44 9.0958 185.414 10.2312 183.481 11.4894V11.5201ZM229.942 6.18048C227.825 5.38261 225.584 4.73816 223.314 4.24716L223.958 1.20909C226.352 1.73078 228.745 2.40591 231.016 3.26516L229.942 6.18048ZM195.94 5.6281L194.989 2.6821C197.291 1.94559 199.684 1.36253 202.108 0.932902L202.661 3.97097C200.39 4.36991 198.119 4.95298 195.94 5.6281ZM216.47 3.26516C214.169 3.08103 211.867 3.05035 209.535 3.1731L209.381 0.0736505C211.806 -0.0490998 214.261 -0.0184131 216.716 0.165712L216.47 3.26516Z" fill="#207F6F"/>
<path d="M243.198 110.948L244.272 108.063L229.941 102.754L236.262 88.8528L233.439 87.564L225.736 104.534L243.198 110.948Z" fill="#207F6F"/>
</g>
</svg>
