<svg width="290" height="311" viewBox="0 0 290 311" fill="none" xmlns="http://www.w3.org/2000/svg">
<path opacity="0.7" fill-rule="evenodd" clip-rule="evenodd" d="M43.4169 108.992C43.4299 108.848 43.3927 108.703 43.3115 108.583C43.2303 108.462 43.1102 108.373 42.9711 108.331C42.832 108.288 42.6825 108.294 42.5475 108.348C42.4125 108.403 42.3002 108.501 42.2295 108.628C36.0958 128.508 42.6835 145.981 50.4841 162.05C51.8175 177.976 51.7286 193.072 47.4077 199.109C38.5848 211.438 28.8064 214.044 20.8789 216.152C10.9766 218.789 3.85229 220.685 4.50949 238.488C4.63647 241.97 4.63968 244.344 4.54126 245.769C4.04279 244.062 3.42371 241.046 2.77286 237.222C0.950531 226.57 3.69357 214.598 8.72882 203.23C15.0023 189.064 24.8188 175.858 33.8099 167.298C39.55 161.825 41.312 156.421 41.0676 151.056C40.8231 145.741 38.6071 140.534 36.3561 135.326C32.0849 125.456 30.0742 115.669 30.3239 105.966C30.5356 96.216 32.9982 86.5516 37.7118 76.9727C40.3659 71.5565 43.1629 66.3682 45.3313 62.3163C48.0077 57.3496 49.8205 53.9909 49.0998 53.4528C48.3284 52.8703 44.0773 57.9985 33.2257 72.3479C30.2763 76.2383 28.054 78.2801 26.4951 78.9353C25.8792 79.1949 25.4062 79.2108 25.0792 79.0208C24.7522 78.8309 24.4855 78.3877 24.3267 77.7546C23.9045 76.0294 24.222 73.1203 25.2252 69.6667C36.226 31.8258 74.0349 9.78104 104.675 3.37083C115.39 1.1328 125.213 0.809912 132.687 2.39901C135.377 2.92193 137.966 3.86641 140.36 5.19735C139.24 5.01586 138.108 4.87235 136.963 4.76684C126.956 3.8425 116.047 5.7893 105.215 10.2939C81.0671 20.3381 57.275 43.13 44.6869 75.2697C39.7183 87.9793 37.8546 93.8165 39.6071 94.5003C41.2708 95.1334 45.8203 90.4199 53.8621 82.0597L55.2114 80.6574L57.1163 81.0309L56.3924 81.5374C56.322 81.5802 56.2609 81.6368 56.2129 81.7037C56.1649 81.7706 56.1309 81.8465 56.113 81.9268C56.0784 82.0869 56.1073 82.2542 56.1937 82.3935C56.2801 82.5328 56.4174 82.6333 56.5765 82.6739C58.0243 83.0094 59.7514 83.3608 61.6213 83.7406L62.1325 83.8451C59.918 86.2101 57.5532 88.4306 55.0526 90.4927C49.9253 94.8643 46.5505 97.7418 46.0965 106.691C45.8298 111.863 46.614 115.94 47.9728 118.052C48.6078 119.036 49.3792 119.635 50.2555 119.777C51.1317 119.92 52.0715 119.593 53.0049 118.726C54.5415 117.292 56.1797 114.244 57.6687 109.195C57.9322 113.626 58.3036 117.998 58.7608 122.373C59.3545 128.071 60.0816 133.721 60.8784 139.378C62.1484 148.533 64.0818 156.507 65.8692 160.286C66.5042 161.635 67.1709 162.502 67.8376 162.8C68.7266 163.186 69.4886 162.775 70.06 161.41C70.8093 159.657 71.3522 155.902 71.5395 149.603C76.689 155.32 85.9055 162.813 97.2397 167.89C105.996 171.812 116.019 174.3 126.419 173.436C147.392 171.695 152.888 159.508 158.672 146.691C160.806 141.961 162.981 137.14 165.975 132.784L166.155 132.525L166.181 132.484C172.092 123.908 172.708 122.987 172.245 110.486C172.236 110.324 172.165 110.172 172.047 110.061C171.929 109.95 171.772 109.888 171.61 109.888C144.306 111.398 143.843 102.256 143.516 95.9818C143.325 92.3762 143.179 89.5969 139.071 89.5906C132.721 89.5747 131.452 92.8384 129.994 96.5706C128.045 101.591 125.73 107.545 107.453 106.14C92.5981 104.997 90.9122 101.344 88.9089 97.0042C88.0581 95.1619 87.1564 93.2056 85.2865 91.2271C81.1433 86.846 72.1617 84.6523 64.4819 83.0569L64.9041 82.5567C73.0539 84.2851 80.7052 86.6276 87.3406 92.3256C87.3793 92.3605 87.4232 92.3893 87.4707 92.411C87.6183 92.4805 87.787 92.4907 87.9419 92.4394C88.0968 92.3881 88.226 92.2793 88.3025 92.1356L89.3407 90.0591C90.582 87.5678 90.3313 86.1908 90.7027 86.3839C90.9345 86.5042 90.4424 86.7257 90.3852 87.4886C90.2251 89.515 90.2039 91.5499 90.3217 93.5791C90.6075 97.9191 91.8139 100.683 94.5919 102.42C97.2841 104.105 101.421 104.75 107.634 104.896C109.167 104.934 110.593 105.01 111.898 105.08C119.286 105.478 122.959 105.678 127.378 97.7798C128.105 96.4819 128.832 95.2474 129.509 94.073C131.652 90.4041 133.299 87.5804 133.61 85.2664C134.172 81.0468 130.594 78.8151 118.371 77.1911C110.847 76.194 105.672 75.8268 101.418 76.4662C97.0968 77.0993 93.7188 78.7771 89.8011 81.8477C88.61 82.7859 87.4707 83.7877 86.3881 84.8486L85.2833 85.9185C85.1214 85.9185 85.5214 84.8296 85.7151 82.0028V81.835C85.7217 81.6752 85.6675 81.5188 85.5632 81.3972C85.459 81.2757 85.3125 81.198 85.1531 81.1797C79.3749 80.6162 73.692 79.6444 68.0091 78.5713C68.2377 78.2548 68.4631 77.9382 68.6917 77.5963C71.0188 77.5267 72.9904 78.1598 75.1175 78.8404C77.9748 79.7616 81.1338 80.7682 85.7024 80.4232C86.8548 80.3345 87.9247 79.7584 89.3725 78.9987C93.7505 76.6783 101.561 72.5346 123.546 76.6973C126.696 77.2924 129.115 78.1155 131.125 79.4703C133.134 80.8252 134.747 82.715 136.306 85.4595C136.36 85.5525 136.436 85.6303 136.528 85.6857C136.62 85.7411 136.725 85.7722 136.833 85.7761L142.909 86.0483C143.025 86.0528 143.14 86.0256 143.241 85.9698C143.342 85.914 143.426 85.8317 143.484 85.7318C145.529 82.3921 150.059 80.2965 155.425 79.2202C160.038 78.3562 164.749 78.1272 169.426 78.5397L169.572 79.8787C165.907 79.6469 162.23 79.7338 158.58 80.1383C154.107 80.6606 150.091 81.7369 147.665 83.4842C145.443 85.0923 144.529 88.4066 144.491 91.9964C144.427 96.3521 145.63 101.176 147.243 103.709C148.637 105.909 153.355 107.435 158.587 108.289C165.159 109.362 172.638 109.41 175.185 108.397C177.947 107.295 179.928 105.045 181.306 102.227C182.95 98.8592 183.738 94.6649 183.973 90.6763C184.227 86.3997 184.335 83.8134 183.3 81.9711C182.265 80.1288 180.125 79.1506 175.959 78.2389C174.178 77.8533 172.376 77.5701 170.562 77.3906C169.149 64.6208 165.67 38.6254 156.51 27.1408C153.793 23.7284 150.596 21.5695 146.837 21.3353C148.015 17.8943 148.202 14.8649 147.548 12.2502C147.111 10.5025 146.278 8.87813 145.113 7.50186C151.664 9.2842 157.657 12.6905 162.533 17.4037C172.692 27.2358 178.994 43.5605 178.585 67.2893C178.563 68.5999 178.499 69.5527 178.455 70.208C178.398 71.0943 178.369 71.5217 178.572 71.8351C178.921 72.3732 179.261 72.2561 179.912 72.0313C180.482 71.824 181.076 71.6879 181.68 71.6261C183.376 71.452 185.357 71.9902 187.395 73.1456C189.754 74.5379 191.854 76.3264 193.602 78.432C197.227 82.658 198.732 83.8135 199.282 83.3608C199.831 82.9081 199.323 81.7464 198.72 80.2934C198.202 79.1516 197.777 77.9702 197.45 76.7606C197.355 76.4142 197.348 76.0497 197.431 75.7002C197.605 75.1019 198.269 74.7948 199.247 74.6999C200.415 74.5827 201.967 74.779 203.691 75.1652C209.044 76.3618 215.918 79.3722 218.429 80.8822C219.552 81.5282 220.719 82.0952 221.921 82.5789C222.899 82.9736 223.853 83.4238 224.779 83.9274C226.849 85.105 227.858 84.8771 227.699 85.1651C227.588 85.3551 227.655 84.9847 227.433 85.0005C226.331 85.0797 224.429 85.2158 223.305 86.8017C223.047 87.1588 222.9 87.5838 222.883 88.0236C222.845 88.9258 223.337 89.9229 224.302 90.8346C225.434 91.8457 226.757 92.6197 228.195 93.1106C229.767 93.6728 231.403 94.0376 233.065 94.1964C233.354 94.4979 233.604 94.8352 233.808 95.1999C235.04 97.4068 236.114 99.698 237.021 102.056C237.964 104.555 238.765 107.104 239.421 109.692C239.463 109.843 239.561 109.974 239.695 110.058C239.829 110.141 239.989 110.172 240.145 110.144C240.989 109.943 241.858 109.863 242.726 109.907C243.592 109.997 244.445 110.189 245.266 110.48C245.367 110.517 245.476 110.529 245.583 110.515C245.746 110.489 245.892 110.401 245.991 110.27C246.089 110.139 246.133 109.975 246.113 109.812C245.829 107.951 245.713 106.069 245.764 104.187C245.833 102.31 246.097 100.445 246.551 98.6218C246.58 98.4964 246.569 98.3652 246.521 98.2459C246.473 98.1266 246.389 98.0247 246.282 97.9539C245.238 97.3112 244.26 96.5691 243.361 95.738C242.481 94.8907 241.691 93.9563 241.002 92.9492C240.934 92.8547 240.841 92.7808 240.733 92.7356C240.626 92.6903 240.508 92.6755 240.392 92.6928C238.165 93.0733 235.899 93.1796 233.646 93.0093C232.503 91.9426 231.068 91.2335 229.88 90.6478C229.403 90.4259 228.938 90.1787 228.487 89.9071C228.093 89.657 227.769 89.4354 227.509 89.2455C227.807 89.3057 228.166 89.3911 228.579 89.5019C228.993 89.6155 229.42 89.6751 229.849 89.6792C230.534 89.6957 231.207 89.4963 231.773 89.1094C232.36 88.6789 232.776 88.0556 232.947 87.3494C233.003 87.1416 233.044 86.93 233.068 86.7162C235.878 86.8239 237.96 86.7447 239.63 86.6846C244.075 86.5168 245.453 86.4662 250.25 90.689C251.057 91.3981 251.498 91.7843 251.895 92.1262C254 93.9527 255.035 94.8517 255.463 95.8457C255.892 96.8396 255.781 98.0204 255.641 100.426C255.597 101.116 255.546 101.901 255.495 102.86C255.422 104.317 255.352 105.846 255.279 107.378C254.962 114.025 254.666 120.692 253.692 127.137C250.317 149.381 244.247 160.821 238.291 165.019C235.979 166.646 233.703 167.156 231.623 166.773C229.544 166.39 227.652 165.108 226.115 163.148C222.505 158.545 220.915 150.296 223.537 141.167C227.785 126.368 236.354 124.557 236.751 124.472H236.802C236.934 124.414 237.042 124.312 237.109 124.185C237.176 124.057 237.197 123.91 237.169 123.769C237.14 123.628 237.065 123.5 236.954 123.407C236.844 123.315 236.705 123.262 236.56 123.259H236.494C235.944 123.329 231.414 123.813 219.137 121.512C215.273 120.787 212.822 119.869 211.673 118.884C211.213 118.492 210.997 118.115 211.016 117.764C211.035 117.412 211.305 116.985 211.816 116.558C213.206 115.393 216.127 114.279 220.429 113.408C221.381 113.218 225.95 112.003 228.465 110.876C229.047 110.646 229.589 110.325 230.071 109.926C230.706 109.315 230.744 108.748 229.944 108.267C229.553 108.033 228.811 107.859 227.614 107.77C226.148 105.939 224.893 103.949 223.874 101.838C222.877 99.7924 222.156 97.6241 221.731 95.3898C221.716 95.3041 221.684 95.2224 221.635 95.1503C221.586 95.0782 221.522 95.0174 221.448 94.972C219.319 93.5804 217.349 91.9617 215.572 90.1445C215.127 89.6733 214.646 89.2373 214.133 88.8403C209.882 85.8964 206.92 84.3832 205.409 83.9971C204.561 83.7818 203.987 83.8989 203.707 84.3136C203.428 84.7283 203.533 85.3012 204.047 85.9977C204.958 87.2259 207.415 89.331 211.549 91.9869C213.603 93.3101 215.584 94.6428 217.416 96.9758C219.175 99.217 220.82 102.405 222.302 107.422C220.035 107.583 218.353 108.397 216.524 109.283C215.626 109.717 214.692 110.17 213.644 110.55C207.654 104.535 207.044 103.009 206.612 101.93C206.015 100.426 205.73 99.7139 195.672 92.0977C192.97 90.0527 190.516 87.4253 188.132 84.8707C187.522 84.2186 186.916 83.5697 186.293 82.9144C186.209 82.8332 186.103 82.7769 185.988 82.752C185.874 82.727 185.754 82.7343 185.643 82.773C185.532 82.8117 185.434 82.8804 185.36 82.9713C185.286 83.0622 185.239 83.1718 185.223 83.288L184.855 87.4602C184.848 87.5554 184.863 87.651 184.898 87.7398C184.933 87.8286 184.988 87.9083 185.058 87.973C196.488 100.455 197.58 103.168 198.878 106.428C199.608 108.356 200.524 110.209 201.612 111.961C205.269 117.951 207.371 122.525 207.765 125.041C207.892 125.839 207.85 126.355 207.638 126.548C207.425 126.741 207.031 126.662 206.352 126.368C204.295 125.475 200.771 122.541 195.659 117.099C193.119 114.408 191.57 111.401 189.903 108.204C188.347 105.216 186.706 102.056 184.096 98.7706C183.992 98.6447 183.843 98.5639 183.68 98.545C183.518 98.5261 183.354 98.5706 183.223 98.6693C183.125 98.7449 183.053 98.8488 183.017 98.9669C182.521 100.65 181.859 102.28 181.039 103.832C180.228 105.325 179.107 106.628 177.75 107.653C177.656 107.722 177.584 107.817 177.541 107.926C177.499 108.034 177.489 108.153 177.512 108.267C177.829 109.765 178.026 111.17 178.233 112.512C178.89 116.852 179.455 120.562 182.433 124.595C187.878 131.968 188.147 135.409 188.433 138.941C188.836 144.006 189.255 149.274 203.472 165.345C211.038 173.892 213.749 179.789 213.206 183.724C212.832 186.418 210.851 188.207 207.825 189.311C204.65 190.467 200.377 190.894 195.589 190.809C177.766 190.527 153.215 183.55 152.205 182.464C152.11 182.363 152.386 182.566 152.472 182.486C153.212 181.799 155.123 180.783 157.552 179.492C164.666 175.693 176.08 169.628 177.461 161.41C177.737 159.761 177.483 156.662 177.144 152.597C176.604 146.089 175.851 137.032 176.737 127.64C176.867 126.292 177.032 124.953 177.188 123.69C177.804 118.679 178.271 114.905 176.251 109.157C176.198 109.035 176.108 108.933 175.994 108.865C175.879 108.797 175.746 108.766 175.614 108.778C175.481 108.789 175.355 108.842 175.254 108.929C175.153 109.016 175.082 109.132 175.051 109.261C174.153 114.643 173.832 118.321 173.575 121.29C172.905 129.014 172.667 131.774 163.498 146.57C162.317 148.47 161.276 151.591 160.126 155.117C158.739 159.324 157.155 164.123 154.939 167.988C154.88 168.113 154.863 168.253 154.891 168.388C154.92 168.523 154.991 168.645 155.096 168.736C155.2 168.826 155.331 168.881 155.469 168.89C155.606 168.9 155.744 168.864 155.86 168.789C158.949 166.671 161.384 164.937 163.558 162.93C165.465 161.168 167.162 159.194 168.616 157.045C168.994 165.25 167.441 166.149 159.212 170.901L159.177 170.919C156.225 172.626 150.634 174.041 144.119 175.69C128.178 179.723 106.796 185.133 103.329 200.065C101.834 206.5 103.24 212.306 106.574 216.956C108.469 219.559 110.857 221.766 113.603 223.455C116.531 225.262 119.74 226.572 123.099 227.333C128.753 228.608 134.631 228.517 140.243 227.067C139.818 229.395 139.633 231.76 139.69 234.126C139.922 240.574 138.516 245.582 136.039 249.121C134.703 251.058 132.918 252.644 130.836 253.746C128.773 254.817 126.493 255.406 124.168 255.468C119.724 255.626 114.796 254.091 110.088 250.818C100.564 244.202 91.8329 235.921 86.0357 230.422C81.8195 226.424 79.0733 223.822 78.159 224.385C76.8319 225.202 81.8894 233.667 96.2872 256.933C96.3013 256.956 96.3172 256.977 96.3348 256.997C118.333 285.129 127.68 295.771 133.182 291.501C136.992 288.541 138.512 278.294 140.992 261.631C142.494 251.558 144.344 239.115 147.237 224.541C148.921 223.745 150.548 222.836 152.107 221.818C145.122 246.095 156.552 251.235 174.093 259.13C177.505 260.666 181.153 262.296 184.925 264.195C185.058 264.246 185.204 264.251 185.341 264.21C185.477 264.168 185.595 264.081 185.676 263.964C185.757 263.847 185.796 263.707 185.787 263.565C185.778 263.423 185.722 263.288 185.627 263.182C182.839 260.602 180.264 258.364 177.902 256.313C168.695 248.298 162.695 243.097 158.412 229.681C166.203 238.099 174.004 243.097 182.109 243.948C190.878 244.87 199.942 240.944 209.651 231.261C209.735 231.166 209.79 231.047 209.806 230.921C209.822 230.795 209.8 230.666 209.742 230.553C209.684 230.439 209.593 230.346 209.481 230.285C209.369 230.224 209.241 230.198 209.114 230.21L207.285 230.432C195.316 231.913 179.477 233.873 175.81 219.07C172.953 207.586 169.286 201.369 165.368 198.833C164.248 198.072 162.956 197.6 161.608 197.459C160.26 197.318 158.898 197.513 157.644 198.026C155.158 198.976 152.742 200.957 150.529 203.61C147.637 207.092 145.078 211.717 143.17 216.62C133.518 216.443 127.931 214.993 125.391 212.876C123.108 210.976 123.53 208.403 125.762 205.744C128.175 202.866 132.607 199.9 138.074 197.444C151.726 191.318 171.696 188.431 182.712 198.077C189.783 204.268 188.938 210.422 188.541 213.328C188.351 214.74 188.224 215.592 189.138 215.794C189.957 215.981 191.583 214.721 195.7 211.524C198.24 209.545 201.786 206.801 206.495 203.293C214.749 197.117 220.527 198.301 224.683 203.832C232.081 213.673 234.716 236.902 237.065 257.696C238.284 268.459 239.43 278.589 241.135 285.911C245.069 302.831 250.145 310.434 256.178 310.118C262.124 309.801 268.836 301.634 276.16 287.009C278.065 283.211 278.436 280.308 278.887 276.788C279.617 271.064 280.57 263.619 289.027 247.456C289.072 247.369 289.095 247.273 289.095 247.176C289.095 247.078 289.072 246.982 289.027 246.896C279.563 225.664 268.937 205.003 258.311 184.348C255.323 178.539 252.336 172.73 249.202 166.567C249.112 166.452 248.984 166.372 248.841 166.34C248.697 166.308 248.548 166.327 248.417 166.393C248.286 166.459 248.182 166.568 248.122 166.702C248.063 166.836 248.052 166.986 248.091 167.127C250.996 172.825 254.101 178.874 257.206 184.911C267.785 205.487 278.366 226.047 287.783 247.149C279.351 263.325 278.389 270.846 277.649 276.633C277.214 280.032 276.858 282.818 275.039 286.446C267.921 300.669 261.556 308.605 256.108 308.886C250.749 309.168 246.113 301.865 242.342 285.642C240.653 278.38 239.51 268.298 238.294 257.567C235.922 236.614 233.268 213.208 225.664 203.094C221.051 196.959 214.724 195.595 205.739 202.309C200.834 205.978 197.399 208.64 194.923 210.565C191.135 213.502 189.643 214.661 189.398 214.607C189.154 214.553 189.665 214.224 189.763 213.512C190.189 210.4 191.091 203.794 183.519 197.165C172.089 187.146 151.542 190.052 137.55 196.332C131.918 198.865 127.324 201.945 124.794 204.965C122.079 208.203 121.638 211.385 124.581 213.828C127.264 216.076 132.972 217.627 142.678 217.849C141.744 220.407 141.002 223.031 140.455 225.699C134.874 227.236 128.998 227.377 123.349 226.107C120.127 225.379 117.048 224.123 114.238 222.391C111.626 220.789 109.354 218.692 107.551 216.218C104.421 211.847 103.107 206.383 104.507 200.321C107.802 186.139 128.762 180.834 144.386 176.88C150.989 175.212 156.656 173.775 159.768 171.98L159.799 171.961C169.21 166.529 170.441 165.817 169.714 155.086C169.699 154.959 169.645 154.84 169.561 154.745C169.476 154.649 169.365 154.581 169.241 154.55C169.117 154.518 168.987 154.525 168.867 154.568C168.747 154.612 168.643 154.691 168.568 154.794C166.947 157.45 164.97 159.873 162.692 161.996C160.955 163.563 159.116 165.013 157.187 166.336C158.863 162.854 160.146 158.976 161.295 155.491C162.444 152.005 163.444 148.982 164.54 147.213C173.867 132.161 174.115 129.324 174.801 121.388C175.01 118.964 175.264 116.051 175.836 112.164C176.826 116.279 176.432 119.492 175.934 123.531C175.785 124.734 175.616 126.007 175.486 127.523C174.588 137.042 175.343 146.149 175.886 152.696C176.204 156.684 176.467 159.707 176.204 161.201C174.934 168.818 163.844 174.715 156.939 178.393C154.428 179.729 152.453 180.78 151.599 181.559C150.926 182.192 150.77 182.752 151.281 183.29C152.342 184.427 177.471 191.742 195.554 192.027C200.488 192.103 204.923 191.67 208.254 190.445C211.714 189.178 213.994 187.08 214.438 183.857C215.029 179.58 212.238 173.347 204.403 164.493C190.462 148.735 190.062 143.683 189.675 138.811C189.379 135.101 189.09 131.49 183.436 123.832C180.639 120.034 180.099 116.475 179.461 112.297C179.274 111.047 179.074 109.746 178.81 108.369C180.167 107.287 181.296 105.949 182.131 104.431C182.819 103.16 183.391 101.831 183.839 100.458C185.97 103.307 187.424 106.111 188.805 108.767C190.522 112.028 192.11 115.114 194.761 117.938C199.999 123.516 203.65 126.545 205.872 127.498C207.054 128.011 207.927 127.979 208.498 127.457C209.07 126.934 209.206 126.077 209.012 124.845C208.593 122.173 206.434 117.435 202.695 111.309C201.64 109.618 200.754 107.828 200.047 105.966C198.71 102.607 197.596 99.8057 186.138 87.2892L186.357 84.7568L187.236 85.7064C189.652 88.2927 192.135 90.9517 194.938 93.0726C204.72 100.477 204.961 101.088 205.476 102.379C205.952 103.576 206.634 105.288 213.057 111.695C213.14 111.775 213.243 111.83 213.354 111.856C213.466 111.881 213.583 111.876 213.692 111.841C214.847 111.423 215.975 110.934 217.07 110.379C218.975 109.454 220.712 108.615 223.128 108.615C223.184 108.613 223.241 108.604 223.296 108.59C223.453 108.542 223.585 108.436 223.665 108.293C223.745 108.15 223.766 107.982 223.725 107.824C222.137 102.196 220.34 98.6662 218.4 96.1939C216.461 93.7216 214.371 92.3034 212.225 90.9232C208.228 88.3528 205.876 86.368 205.053 85.2411C204.885 85.0164 204.701 85.0512 204.736 84.991C204.774 84.9341 204.818 85.1145 205.104 85.1873C206.495 85.5418 209.308 86.9917 213.425 89.8438C213.877 90.2005 214.301 90.5899 214.695 91.0087C216.474 92.8242 218.439 94.4476 220.559 95.852C221.011 98.1034 221.748 100.288 222.753 102.354C223.85 104.628 225.21 106.767 226.804 108.726C226.858 108.799 226.927 108.86 227.008 108.902C227.088 108.945 227.177 108.969 227.268 108.973C227.847 108.993 228.423 109.066 228.988 109.192C228.659 109.401 228.312 109.583 227.953 109.736C225.518 110.828 221.093 112.006 220.185 112.189C215.67 113.104 212.565 114.31 211.016 115.602C210.228 116.26 209.809 116.966 209.771 117.694C209.733 118.422 210.089 119.163 210.86 119.821C212.171 120.942 214.816 121.958 218.905 122.724C226.023 124.06 230.611 124.465 233.344 124.557C230.131 126.406 225.223 130.768 222.337 140.822C219.6 150.356 221.308 159.027 225.134 163.908C226.855 166.105 229.011 167.548 231.398 167.988C233.786 168.428 236.395 167.862 238.995 166.029C245.193 161.663 251.482 149.961 254.92 127.305C255.901 120.825 256.212 114.098 256.508 107.413C256.574 105.928 256.644 104.446 256.724 102.902C256.768 102.018 256.819 101.202 256.866 100.483C257.035 97.8811 257.117 96.5579 256.59 95.336C256.063 94.1141 254.946 93.1201 252.698 91.1702C252.117 90.6668 251.466 90.1034 251.057 89.7425C245.885 85.1905 244.389 85.2443 239.573 85.4279C237.814 85.4912 235.598 85.5767 232.544 85.4279H232.465C232.296 85.4279 232.135 85.4946 232.016 85.6133C231.897 85.732 231.83 85.8931 231.83 86.061C231.833 86.3864 231.795 86.7108 231.716 87.0265C231.618 87.4529 231.373 87.8316 231.023 88.0964C230.667 88.3314 230.247 88.4499 229.82 88.4351C229.498 88.4311 229.178 88.3854 228.868 88.299C227.703 87.9825 226.871 87.8527 226.398 87.897C226.228 87.8928 226.061 87.9389 225.918 88.0296C225.775 88.1203 225.662 88.2514 225.594 88.4062C225.526 88.561 225.506 88.7325 225.536 88.8989C225.566 89.0653 225.645 89.219 225.763 89.3405C226.045 89.7203 226.715 90.2553 227.791 90.9486C228.281 91.2445 228.787 91.514 229.306 91.7558C229.827 92.0122 230.398 92.2939 230.963 92.62C230.158 92.4504 229.365 92.224 228.592 91.9425C227.315 91.508 226.138 90.8259 225.128 89.9356C224.429 89.2708 224.071 88.6124 224.093 88.0679C224.102 87.8694 224.169 87.6779 224.286 87.5171C225.08 86.4092 226.614 86.2984 227.503 86.2351C228.112 86.1908 228.541 86.1591 228.772 85.7729C229.15 85.1145 228.274 84.4909 225.388 82.8448C224.423 82.3182 223.429 81.8468 222.41 81.433C221.269 80.9705 220.161 80.4289 219.096 79.8122C216.518 78.2643 209.47 75.1747 203.983 73.9496C202.136 73.5349 200.45 73.3165 199.142 73.459C197.643 73.6046 196.602 74.1807 196.253 75.3583C196.114 75.9036 196.114 76.4749 196.253 77.0202C196.597 78.3042 197.044 79.5587 197.589 80.7714C197.999 81.7622 198.653 82.2845 198.491 82.4206C198.421 82.4808 197.586 81.1544 194.567 77.6248C192.723 75.4107 190.51 73.5312 188.024 72.0693C185.744 70.7841 183.509 70.1921 181.557 70.3916C180.907 70.4553 180.268 70.5956 179.652 70.8094C179.668 70.6796 179.687 70.5087 179.699 70.2839C179.744 69.6508 179.804 68.7012 179.829 67.3083C180.245 43.2028 173.797 26.5742 163.403 16.5141C157.859 11.1635 150.935 7.4509 143.402 5.7893C140.83 3.63674 137.271 2.10462 132.972 1.19294C125.353 -0.430978 115.333 -0.111256 104.45 2.16476C73.4603 8.64145 35.1973 30.9711 24.0473 69.309C22.9838 72.9683 22.6536 76.1085 23.1298 78.0395C23.3711 79.0082 23.8124 79.7141 24.4696 80.0908C25.1268 80.4675 25.984 80.4896 26.9904 80.0655C28.7397 79.331 31.1431 77.1627 34.229 73.0854C44.5376 59.4736 48.3569 54.4246 48.3696 54.4341C48.503 54.5354 46.6267 57.3116 44.2424 61.7148C42.0486 65.792 39.2325 71.012 36.5847 76.4156C31.8204 86.1401 29.3175 95.9775 29.0763 105.928C28.8434 115.804 30.8912 125.762 35.2195 135.801C37.4419 140.907 39.6008 146.013 39.8357 151.094C40.0643 156.124 38.3943 161.204 32.9622 166.383C23.8791 175.044 13.9514 188.396 7.6113 202.714C2.4903 214.284 -0.300354 226.497 1.57913 237.415C2.34427 241.891 3.06494 245.291 3.62372 246.851C3.88406 247.586 4.19202 248.029 4.54126 248.136C5.1286 248.32 5.52545 247.95 5.6969 246.956C5.90643 245.753 5.95087 243.043 5.78259 238.444C5.16669 221.631 11.8909 219.84 21.2376 217.352C29.3524 215.19 39.3722 212.524 48.4585 199.827C52.6715 193.936 53.0525 180.046 51.9826 165.025C52.7678 166.595 53.552 168.154 54.3351 169.701C67.5106 195.782 78.8416 218.213 32.9083 241.242C15.5325 249.957 6.3985 258.336 3.68405 264.464C2.51572 267.101 2.50299 269.371 3.50308 271.131C4.50314 272.891 6.48422 274.078 9.31616 274.585C16.177 275.813 28.3143 273.002 43.655 264.078L43.69 264.056C58.2148 255.594 67.2916 243.11 71.7204 228.918C76.6255 213.189 75.8128 195.364 70.3648 178.602C65.7518 164.493 60.0371 150.619 54.3224 136.792C51.3476 129.562 48.376 122.341 45.5758 115.114C45.5098 114.989 45.4035 114.89 45.2741 114.832C45.1447 114.774 44.9995 114.76 44.8618 114.794C44.724 114.828 44.6016 114.907 44.5141 115.019C44.4266 115.13 44.379 115.267 44.3789 115.409C44.6456 117.669 45.1631 121.088 45.8012 125.298C47.1346 134.089 48.9951 146.352 50.1539 158.488C43.1312 143.481 37.788 127.203 43.4074 108.992H43.4169ZM55.4114 169.137C54.17 166.684 52.916 164.199 51.6873 161.676C50.5793 148.435 48.5125 134.715 47.0426 125.105C46.7854 123.408 46.5473 121.838 46.3378 120.426C48.5601 126.039 50.8746 131.645 53.1858 137.257C58.8688 151.059 64.5708 164.911 69.1457 178.982C74.5175 195.506 75.3239 213.069 70.495 228.551C66.1582 242.48 57.2591 254.705 43.0232 262.995H42.9883C27.9238 271.761 16.1071 274.54 9.50031 273.356C7.04935 272.916 5.35718 271.929 4.55075 270.507C3.74435 269.086 3.78879 267.209 4.78571 264.952C7.39856 259.045 16.342 250.909 33.4321 242.337C80.4766 218.738 68.8853 195.804 55.4114 169.118V169.137ZM4.85239 246.937C4.94443 246.972 4.98572 246.987 4.87143 246.953C4.87143 246.953 4.87143 246.953 4.85239 246.937ZM142.789 6.93206C144.523 8.39367 145.758 10.3575 146.322 12.5509C146.957 15.0485 146.732 17.9766 145.519 21.3384C142.979 21.4777 140.233 22.4622 137.204 24.4786C139.217 20.2526 139.398 18.0842 138.23 17.4638C134.617 15.5392 115.19 34.0544 100.802 47.7643C95.9031 52.4335 91.5948 56.5392 88.7375 59.059C92.9981 51.3857 95.0871 46.7355 95.611 44.3265C96.2078 41.5725 95.2617 40.9616 93.2457 41.8859C91.8742 42.519 89.8106 44.1999 87.3596 46.5266C78.5209 54.9248 64.3676 71.9459 60.2308 77.4476C60.1353 77.5802 60.0948 77.7444 60.1179 77.906C60.141 78.0676 60.2258 78.2141 60.3546 78.3149C60.4312 78.3707 60.5189 78.4096 60.6117 78.4289L61.2054 78.5428C60.3832 78.9733 59.5164 79.4767 58.5989 80.0623C57.4972 79.8502 56.3765 79.6349 55.1066 79.3849C54.9962 79.3638 54.8822 79.3724 54.7763 79.4096C54.6703 79.4469 54.5761 79.5115 54.5034 79.5969L52.9509 81.2114C45.271 89.1917 40.9342 93.7026 40.0421 93.3575C39.2452 93.041 41.1691 87.6437 45.8266 75.7318C58.2719 43.9245 81.8069 21.3796 105.672 11.4524C116.324 7.0207 127.032 5.12138 136.833 6.01406C138.827 6.19581 140.808 6.50242 142.763 6.93206H142.789ZM144.986 22.6901C143.297 26.666 140.278 31.2086 135.696 36.3209C127.616 45.3363 124.562 48.2328 124.099 47.8213C123.753 47.5047 124.997 44.3614 126.515 40.5152C127.296 38.5368 128.143 36.3842 128.861 34.3076C129.442 32.6236 129.245 31.7087 128.41 31.4238C125.892 30.5596 114.463 41.4048 103.837 51.487C98.3191 56.7259 93.0203 61.7528 89.3915 64.7822L69.0949 74.912C68.9956 74.9621 68.9113 75.0375 68.8504 75.1304C68.5732 75.5525 68.298 75.9682 68.0249 76.3776C66.327 76.527 64.6654 76.9548 63.1071 77.6438L61.8372 77.3969C66.5995 71.2336 79.8226 55.4091 88.2263 47.4224C90.582 45.1812 92.5378 43.5763 93.7759 43.0097C94.3728 42.7343 94.63 43.0097 94.4109 44.0606C93.849 46.65 91.3313 52.0536 86.0262 61.373C85.9692 61.496 85.9534 61.634 85.981 61.7667C86.0085 61.8994 86.078 62.0197 86.1793 62.1101C86.2806 62.2004 86.4083 62.256 86.5436 62.2686C86.6789 62.2812 86.8147 62.2502 86.931 62.1802C89.2359 60.5024 94.8871 55.1179 101.665 48.657C115.777 35.2098 134.833 17.0523 137.652 18.5527C138.328 18.9136 137.617 21.2023 134.953 26.1754C134.89 26.3001 134.87 26.4421 134.896 26.5794C134.922 26.7167 134.993 26.8416 135.098 26.9344C135.203 27.0273 135.335 27.083 135.475 27.0929C135.615 27.1027 135.754 27.0662 135.871 26.9889C139.239 24.3172 142.268 22.9718 144.992 22.6869L144.986 22.6901ZM136.62 37.1471C141.484 31.7214 144.637 26.8813 146.341 22.6331C149.935 22.7218 152.964 24.7097 155.523 27.9164C164.413 39.0686 167.864 64.5353 169.283 77.2798C164.57 76.8864 159.825 77.1302 155.177 78.0047C149.643 79.1126 144.919 81.2969 142.598 84.7979L137.201 84.5574C135.595 81.8002 133.902 79.8629 131.804 78.451C129.645 76.9949 127.08 76.1149 123.759 75.4881C101.342 71.2463 93.2807 75.5166 88.7724 77.9097C87.4707 78.603 86.4802 79.1253 85.5976 79.1949C81.2703 79.5115 78.2479 78.5618 75.489 77.6723C73.4952 77.0392 71.6315 76.4377 69.533 76.3459L69.7997 75.9376L89.9757 65.8807C90.0344 65.8565 90.089 65.8234 90.1376 65.7825C93.7854 62.7373 99.1255 57.6661 104.691 52.386C115.05 42.5538 126.197 31.9778 128.004 32.5982C128.077 32.6236 127.981 33.0319 127.686 33.9056C126.965 35.9917 126.127 38.1126 125.359 40.0626C123.667 44.3487 122.283 47.8593 123.273 48.7425C124.334 49.6921 127.931 46.8432 136.623 37.1471H136.62ZM67.0566 77.7609L66.6566 78.3181L65.5391 78.1028C66.038 77.9602 66.5447 77.8461 67.0566 77.7609ZM65.8375 79.4228C65.3676 80.0433 64.903 80.6331 64.4438 81.1924C63.1135 80.917 61.7706 80.6542 60.4213 80.3947C61.3437 79.85 62.2979 79.3606 63.2786 78.929L65.8375 79.4228ZM63.5421 82.2718L63.1071 82.772L61.888 82.5251C60.6181 82.2623 59.3863 82.0154 58.2465 81.7685C58.4529 81.6261 58.6592 81.4899 58.8624 81.357C60.4498 81.6577 61.996 81.9553 63.5421 82.2718ZM55.8781 91.4519C58.6129 89.2038 61.1826 86.7632 63.5675 84.149C71.222 85.7318 80.3941 87.8558 84.4039 92.1008C86.131 93.9305 86.9913 95.7918 87.8009 97.5455C89.9725 102.246 91.798 106.2 107.383 107.4C126.565 108.862 129.064 102.439 131.153 97.0264C132.442 93.7152 133.566 90.8219 139.071 90.8346C142.008 90.8346 142.125 93.1075 142.278 96.0482C142.63 102.781 143.148 112.56 171.051 111.161C171.457 122.664 170.781 123.664 165.184 131.787L165.152 131.828L164.974 132.088C161.895 136.554 159.704 141.414 157.552 146.181C151.926 158.656 146.576 170.514 126.331 172.195C116.171 173.04 106.329 170.612 97.7571 166.754C85.8135 161.41 76.2573 153.325 71.4665 147.602C71.4097 147.532 71.3382 147.475 71.257 147.436C71.1758 147.397 71.0869 147.376 70.9966 147.374C70.832 147.374 70.6737 147.438 70.5553 147.552C70.4368 147.666 70.3674 147.821 70.3616 147.985C70.2251 155.079 69.6949 159.163 68.9393 160.929C68.6948 161.505 68.498 161.733 68.3456 161.667C67.971 161.505 67.517 160.837 67.0058 159.767C65.2692 156.092 63.3929 148.254 62.123 139.217C61.3261 133.566 60.599 127.919 60.0117 122.256C59.4244 116.593 58.9672 110.92 58.7164 105.2C58.7013 105.057 58.6382 104.924 58.5375 104.822C58.4367 104.72 58.3041 104.655 58.1615 104.638C58.0188 104.62 57.8745 104.652 57.7521 104.727C57.6298 104.802 57.5365 104.916 57.4877 105.051C55.8051 112.202 53.9034 116.213 52.1667 117.827C51.5318 118.413 50.9635 118.644 50.4682 118.565C49.9729 118.486 49.4681 118.074 49.0332 117.39C47.8014 115.491 47.0965 111.673 47.3505 106.764C47.7791 98.3464 50.9921 95.6051 55.8749 91.4424L55.8781 91.4519ZM65.8089 81.4994C66.2661 80.9265 66.7296 80.3282 67.1963 79.6982C72.911 80.7809 78.6257 81.7717 84.442 82.3668C84.2102 85.7318 84.1594 87.0645 85.1531 87.1689C85.7214 87.2291 86.2992 86.6719 87.2485 85.7571C88.3008 84.7212 89.4082 83.7427 90.5662 82.8258C94.3029 79.9072 97.5159 78.3212 101.602 77.7103C105.729 77.0772 110.809 77.4539 118.213 78.4352C129.493 79.9357 132.817 81.7717 132.379 85.1208C132.106 87.1847 130.509 89.9166 128.439 93.4683C127.772 94.6079 127.054 95.8362 126.296 97.1942C122.254 104.412 118.838 104.228 111.964 103.842C110.672 103.772 109.26 103.696 107.669 103.658C101.678 103.516 97.7318 102.921 95.2586 101.37C92.8679 99.8754 91.8234 97.4126 91.5663 93.5C91.4535 91.5224 91.4747 89.5394 91.6297 87.5646C91.7091 86.2984 91.7599 85.5418 91.2773 85.2886C90.5217 84.8897 89.8677 86.2034 88.22 89.5114L87.5374 90.8789C81.0036 85.4975 73.6126 83.174 65.8089 81.4836V81.4994ZM170.686 78.6505C172.363 78.8266 174.029 79.094 175.677 79.4513C179.461 80.2807 181.353 81.0753 182.195 82.5789C183.036 84.0825 182.953 86.558 182.712 90.6067C182.487 94.4465 181.734 98.4731 180.172 101.686C178.921 104.247 177.15 106.279 174.715 107.248C172.343 108.198 165.162 108.112 158.771 107.067C153.85 106.263 149.459 104.909 148.294 103.05C146.792 100.679 145.672 96.1369 145.732 92.0027C145.776 88.7738 146.538 85.8267 148.405 84.4845C150.627 82.8701 154.453 81.8666 158.733 81.3665C162.379 80.9622 166.054 80.8817 169.714 81.1259L169.88 82.6865C170.197 85.6463 169.88 86.8714 169.533 88.1914C169.003 90.2142 168.416 92.449 169.67 100.442C169.73 100.825 169.81 101.363 169.883 101.863C170.162 103.81 170.362 105.187 171 105.865C171.991 106.916 173.48 106.257 176.617 103.332C178.067 102.008 179.159 100.342 179.791 98.4857C180.404 96.694 180.649 94.6681 180.677 92.3097C180.677 91.569 180.706 90.8536 180.722 90.1857C180.877 83.9432 180.941 81.338 174.137 80.3409C173.096 80.1889 171.994 80.0655 170.854 79.9705L170.715 78.66L170.686 78.6505ZM170.956 81.2177C171.988 81.3064 172.985 81.4235 173.931 81.5628C179.645 82.3985 179.588 84.6808 179.452 90.1445C179.436 90.8093 179.417 91.5152 179.407 92.2876C179.379 94.5035 179.153 96.4028 178.582 98.0774C178.019 99.7399 177.042 101.233 175.743 102.417C173.277 104.725 172.251 105.406 171.889 105.013C171.527 104.621 171.343 103.405 171.096 101.686C171.038 101.294 170.978 100.876 170.88 100.249C169.664 92.5123 170.216 90.4073 170.718 88.4985C171.096 87.0645 171.445 85.7318 171.099 82.5504L170.956 81.2177ZM179.598 71.1608C179.595 71.1461 179.595 71.1312 179.598 71.1165C179.652 71.2273 179.693 71.3001 179.598 71.1608ZM234.741 94.3009C236.569 94.3636 238.4 94.2576 240.208 93.9843C240.888 94.9402 241.657 95.8304 242.504 96.6434C243.351 97.4303 244.268 98.1391 245.243 98.7611C244.829 100.527 244.588 102.33 244.523 104.143C244.471 105.772 244.547 107.403 244.751 109.021C244.13 108.838 243.492 108.718 242.846 108.663C242.062 108.615 241.275 108.665 240.503 108.812C239.87 106.372 239.105 103.968 238.211 101.61C237.284 99.1961 236.186 96.8508 234.925 94.5921L234.754 94.304L234.741 94.3009ZM141.544 226.703C143.012 226.274 144.453 225.758 145.859 225.158C143.055 239.403 141.246 251.558 139.773 261.444C137.338 277.804 135.842 287.867 132.433 290.517C127.81 294.113 118.781 283.673 97.3412 256.256C83.4324 233.781 78.4574 225.664 78.8225 225.436C78.9241 225.376 81.3941 227.722 85.1912 231.321C91.0202 236.848 99.7954 245.173 109.39 251.837C114.323 255.265 119.511 256.873 124.226 256.706C126.734 256.636 129.194 256 131.42 254.844C133.671 253.646 135.601 251.925 137.046 249.827C139.665 246.079 141.173 240.815 140.916 234.081C140.862 231.606 141.075 229.132 141.551 226.703H141.544ZM152.847 219.818C151.168 221.014 149.4 222.08 147.557 223.005C147.93 221.159 148.319 219.279 148.726 217.367C148.756 217.207 148.723 217.041 148.634 216.904C148.545 216.767 148.406 216.67 148.246 216.633C148.185 216.625 148.123 216.625 148.062 216.633C146.818 216.662 145.63 216.671 144.494 216.665C146.332 212.052 148.757 207.709 151.478 204.43C153.558 201.939 155.802 200.077 158.076 199.216C159.148 198.777 160.313 198.609 161.467 198.728C162.62 198.848 163.726 199.25 164.686 199.9C168.352 202.274 171.832 208.251 174.594 219.397C178.54 235.256 195.005 233.22 207.444 231.685H207.46C198.539 240.147 190.233 243.578 182.239 242.736C173.842 241.853 165.714 236.259 157.517 226.836C157.423 226.735 157.299 226.667 157.163 226.643C157.027 226.619 156.887 226.639 156.764 226.701C156.641 226.764 156.542 226.864 156.481 226.988C156.42 227.111 156.402 227.251 156.428 227.386C160.857 243.16 167.111 248.595 177.09 257.266C178.502 258.494 179.991 259.798 181.566 261.191C179.16 260.052 176.836 259.007 174.61 258.003C157.276 250.204 146.132 245.189 153.802 220.511C153.832 220.389 153.825 220.26 153.781 220.142C153.737 220.025 153.66 219.922 153.557 219.848C153.455 219.775 153.333 219.733 153.207 219.729C153.081 219.724 152.957 219.757 152.85 219.824L152.847 219.818ZM146.154 223.673C144.746 224.31 143.299 224.861 141.824 225.322C142.377 222.794 143.11 220.308 144.017 217.883C145.076 217.896 146.185 217.896 147.345 217.883C146.921 219.846 146.525 221.776 146.154 223.673Z" fill="white"/>
</svg>
