<svg width="225" height="103" viewBox="0 0 225 103" fill="none" xmlns="http://www.w3.org/2000/svg">
<g opacity="0.8">
<path d="M217.628 43.2791C216.291 41.3235 214.829 39.3699 213.224 37.5799L210.921 39.6042C212.415 41.33 213.837 43.1377 215.085 44.9922L217.598 43.2869L217.628 43.2791ZM208.192 32.4555C206.422 30.8662 204.55 29.3665 202.578 27.9564L200.803 30.4332C202.656 31.7501 204.483 33.1993 206.135 34.6954L208.184 32.4264L208.192 32.4555ZM196.521 24.1387C194.457 22.9719 192.271 21.9316 190.079 20.9867L188.896 23.8054C191.013 24.7075 193.067 25.7206 195.049 26.8155L196.521 24.1387ZM183.348 18.5064C181.065 17.8048 178.718 17.2143 176.402 16.7404L175.801 19.747C178.043 20.1782 180.257 20.7417 182.445 21.4376L183.348 18.5064ZM169.316 15.7313C166.946 15.5221 164.512 15.4239 162.146 15.4637L162.183 18.5181C164.453 18.4726 166.762 18.573 169.037 18.7765L169.316 15.7313ZM154.967 15.9801C152.577 16.2767 150.196 16.7271 147.912 17.3076L148.644 20.2698C150.839 19.7127 153.104 19.2936 155.37 18.9991L154.967 15.9801ZM142.128 22.3282L141.026 19.4968C138.988 20.293 137.01 21.1981 135.114 22.1751L134.483 22.5008L135.92 25.1801L136.522 24.8622C138.301 23.9165 140.199 23.064 142.099 22.336L142.128 22.3282ZM130.097 28.7727L128.392 26.2591C126.516 27.5435 124.583 28.968 122.69 30.5384L124.606 32.9019C126.456 31.4055 128.309 30.0336 130.134 28.7941L130.097 28.7727ZM119.348 37.4375L117.282 35.2084C115.55 36.7981 113.863 38.4382 112.192 40.1367L114.36 42.2762C115.981 40.6225 117.646 39.0193 119.356 37.4667L119.348 37.4375ZM109.506 47.2665L107.287 45.1719C105.941 46.5646 104.631 47.9786 103.292 49.4005L102.465 50.2789L104.683 52.3735L105.511 51.4951C106.821 50.0811 108.167 48.6884 109.477 47.2743L109.506 47.2665ZM99.8603 57.4806L97.6711 55.3781C96.0583 57.061 94.4376 58.7148 92.7722 60.3179L94.8897 62.5022C96.5764 60.8621 98.2184 59.1713 99.8603 57.4806ZM89.6813 67.3373L87.6572 65.0343C85.8594 66.6104 84.0673 68.0911 82.3237 69.4025L84.1593 71.8187C85.9535 70.4625 87.7961 68.9369 89.6735 67.3082L89.6813 67.3373ZM78.3159 75.9172L76.6824 73.3219C75.5296 74.0373 74.3397 74.7313 73.1129 75.404C72.3215 75.8349 71.4932 76.2444 70.6941 76.6462L71.9931 79.3938C72.8506 78.9764 73.7081 78.559 74.5499 78.0833C75.8351 77.3949 77.0755 76.6561 78.2789 75.8959L78.3159 75.9172ZM65.3717 82.106L64.378 79.2141C63.1469 79.6378 61.9003 80.0031 60.6458 80.3392C59.683 80.5972 58.7495 80.8474 57.7711 81.047L58.4147 84.0326C59.4223 83.8252 60.422 83.5886 61.4431 83.315C62.756 82.9632 64.061 82.5823 65.3504 82.143L65.3717 82.106ZM51.0563 82.127C48.8036 82.3554 46.4905 82.4749 44.2044 82.462L44.175 85.503C46.5564 85.5215 48.994 85.3999 51.3342 85.1481L51.0193 82.1056L51.0563 82.127ZM37.377 82.0714C35.1238 81.8309 32.8315 81.4445 30.611 80.9764L29.9725 83.9616C32.2961 84.4647 34.6838 84.8568 37.0616 85.0952L37.4062 82.0636L37.377 82.0714ZM24.0017 79.1827C21.8354 78.4498 19.6749 77.6217 17.6154 76.7039L16.358 79.4798C18.5285 80.4616 20.763 81.3325 23.0325 82.1002L23.9804 79.2197L24.0017 79.1827ZM11.5687 73.5087C9.6003 72.3476 7.71738 71.0386 5.91416 69.6769L4.05711 72.0819C5.94994 73.5447 7.936 74.8886 9.98615 76.1216L11.5687 73.5087Z" fill="#1E6A5D"/>
<path d="M200.131 43.5582L200.703 40.5594L215.491 43.3511L217.173 28.3916L220.213 28.7654L218.145 46.955L200.131 43.5582Z" fill="#1E6A5D"/>
</g>
</svg>
