<svg width="106" height="60" viewBox="0 0 106 60" fill="none" xmlns="http://www.w3.org/2000/svg">
<path d="M53.3819 59.0923C49.7812 59.2827 46.1712 58.9878 42.6495 58.2157C35.9573 56.586 29.5692 53.9 23.7268 50.2591C15.0987 44.9098 7.31346 38.3135 0.625234 30.6854C-0.240069 29.7218 -0.193124 29.6214 0.678887 28.6444C4.04015 24.8572 7.66221 21.3086 11.5187 18.0244C18.6356 12.0018 26.3362 6.88251 35.1099 3.50982C39.3046 1.82225 43.7213 0.747184 48.2236 0.317815C50.7014 0.0340711 53.1973 -0.0598782 55.6894 0.0367685C59.5598 0.310943 63.3859 1.02717 67.0926 2.17145C75.2091 4.71435 82.4736 8.79639 89.282 13.8086C94.4336 17.6029 99.0016 22.0195 103.496 26.5231C104.24 27.2659 104.837 28.1157 105.589 28.8786C105.716 28.9754 105.82 29.1003 105.891 29.2437C105.963 29.3871 106 29.545 106 29.7051C106 29.8652 105.963 30.0231 105.891 30.1664C105.82 30.3098 105.716 30.4348 105.589 30.5315C102.51 33.6298 99.5516 36.8553 96.3319 39.8064C90.5333 45.1783 84.005 49.7086 76.9397 53.2637C72.2793 55.7177 67.2785 57.4656 62.102 58.4499C59.2445 58.9317 56.3267 59.0656 53.4423 59.36L53.3819 59.0923ZM22.8852 41.7683C22.8852 41.7683 23.5843 42.4846 24.0823 42.7508C29.6927 46.6419 35.9163 49.5687 42.4952 51.4101C48.7772 53.1447 55.39 53.3147 61.7532 51.9053C70.9898 49.8977 78.9587 45.267 86.3909 39.619C86.5586 39.4919 89.6652 37.0099 89.6652 37.0099C89.6652 37.0099 89.9171 36.745 90.1406 36.5809C92.4145 34.473 94.6683 32.3517 96.949 30.2571C97.4185 29.8289 97.2978 29.5344 96.9087 29.1798C94.3531 26.8108 91.8108 24.4285 89.2484 22.0663C88.8926 21.792 88.5589 21.4955 88.0752 21.1485L87.1489 20.4001C86.9611 20.2395 86.78 20.0454 86.5653 19.8915C84.6402 18.5531 82.7486 17.1211 80.7765 15.8429C73.6529 11.2389 66.0194 7.87961 57.4938 6.90929C53.2771 6.40748 49.0073 6.5746 44.8429 7.40448C38.1352 8.74285 32.0579 11.5668 26.3227 15.1871C20.081 19.182 14.3076 23.862 9.11057 29.1396C8.7014 29.5545 8.68128 29.8423 9.11057 30.2237C12.4779 33.2172 15.8474 36.2129 19.2192 39.2108C19.5282 39.4411 19.8532 39.649 20.1918 39.8332L22.8852 41.7683Z" fill="white"/>
<path d="M28.7344 24.1348V30H26.7588V22.6035H28.6113L28.7344 24.1348ZM28.4609 26.042H27.9141C27.9141 25.527 27.9756 25.0531 28.0986 24.6201C28.2262 24.1826 28.4108 23.8044 28.6523 23.4854C28.8984 23.1618 29.2015 22.9111 29.5615 22.7334C29.9215 22.5557 30.3385 22.4668 30.8125 22.4668C31.1406 22.4668 31.4414 22.5169 31.7148 22.6172C31.9883 22.7129 32.223 22.8656 32.4189 23.0752C32.6195 23.2803 32.7744 23.5492 32.8838 23.8818C32.9932 24.21 33.0479 24.6042 33.0479 25.0645V30H31.0791V25.2832C31.0791 24.946 31.0335 24.6862 30.9424 24.5039C30.8512 24.3216 30.7214 24.194 30.5527 24.1211C30.3887 24.0482 30.1904 24.0117 29.958 24.0117C29.7028 24.0117 29.4795 24.0641 29.2881 24.1689C29.1012 24.2738 28.9463 24.4196 28.8232 24.6064C28.7002 24.7887 28.609 25.0029 28.5498 25.249C28.4906 25.4951 28.4609 25.7594 28.4609 26.042ZM32.8633 25.8164L32.1592 25.9053C32.1592 25.4222 32.2184 24.9733 32.3369 24.5586C32.46 24.1439 32.64 23.7793 32.877 23.4648C33.1185 23.1504 33.417 22.9066 33.7725 22.7334C34.1279 22.5557 34.5381 22.4668 35.0029 22.4668C35.3584 22.4668 35.682 22.5192 35.9736 22.624C36.2653 22.7243 36.5137 22.8861 36.7188 23.1094C36.9284 23.3281 37.0879 23.6152 37.1973 23.9707C37.3112 24.3262 37.3682 24.7614 37.3682 25.2764V30H35.3926V25.2764C35.3926 24.9346 35.347 24.6748 35.2559 24.4971C35.1693 24.3148 35.0417 24.1895 34.873 24.1211C34.709 24.0482 34.513 24.0117 34.2852 24.0117C34.0482 24.0117 33.8408 24.0596 33.6631 24.1553C33.4854 24.2464 33.3372 24.374 33.2188 24.5381C33.1003 24.7021 33.0114 24.8936 32.9521 25.1123C32.8929 25.3265 32.8633 25.5612 32.8633 25.8164ZM42.8848 28.332V25.0371C42.8848 24.8001 42.846 24.5973 42.7686 24.4287C42.6911 24.2555 42.5703 24.1211 42.4062 24.0254C42.2467 23.9297 42.0394 23.8818 41.7842 23.8818C41.5654 23.8818 41.3763 23.9206 41.2168 23.998C41.0573 24.071 40.9342 24.1781 40.8477 24.3193C40.7611 24.4561 40.7178 24.6178 40.7178 24.8047H38.749C38.749 24.4902 38.8219 24.1917 38.9678 23.9092C39.1136 23.6266 39.3255 23.3783 39.6035 23.1641C39.8815 22.9453 40.2119 22.7744 40.5947 22.6514C40.9821 22.5283 41.415 22.4668 41.8936 22.4668C42.4678 22.4668 42.9782 22.5625 43.4248 22.7539C43.8714 22.9453 44.2223 23.2324 44.4775 23.6152C44.7373 23.998 44.8672 24.4766 44.8672 25.0508V28.2158C44.8672 28.6214 44.8923 28.9541 44.9424 29.2139C44.9925 29.4691 45.0654 29.6924 45.1611 29.8838V30H43.1719C43.0762 29.7995 43.0033 29.5488 42.9531 29.248C42.9076 28.9427 42.8848 28.6374 42.8848 28.332ZM43.1445 25.4951L43.1582 26.6094H42.0576C41.7979 26.6094 41.5723 26.639 41.3809 26.6982C41.1895 26.7575 41.0322 26.8418 40.9092 26.9512C40.7861 27.056 40.695 27.179 40.6357 27.3203C40.5811 27.4616 40.5537 27.6165 40.5537 27.7852C40.5537 27.9538 40.5924 28.1064 40.6699 28.2432C40.7474 28.3753 40.859 28.4801 41.0049 28.5576C41.1507 28.6305 41.3216 28.667 41.5176 28.667C41.8138 28.667 42.0713 28.6077 42.29 28.4893C42.5088 28.3708 42.6774 28.2249 42.7959 28.0518C42.9189 27.8786 42.9827 27.7145 42.9873 27.5596L43.5068 28.3936C43.4339 28.5804 43.3337 28.7741 43.2061 28.9746C43.083 29.1751 42.9258 29.3643 42.7344 29.542C42.543 29.7152 42.3128 29.8587 42.0439 29.9727C41.7751 30.082 41.4561 30.1367 41.0869 30.1367C40.6175 30.1367 40.1914 30.0433 39.8086 29.8564C39.4303 29.665 39.1296 29.403 38.9062 29.0703C38.6875 28.7331 38.5781 28.3503 38.5781 27.9219C38.5781 27.5345 38.651 27.1904 38.7969 26.8896C38.9427 26.5889 39.1569 26.3359 39.4395 26.1309C39.7266 25.9212 40.0843 25.764 40.5127 25.6592C40.9411 25.5498 41.4378 25.4951 42.0029 25.4951H43.1445ZM49.4404 28.5986C49.682 28.5986 49.8962 28.5531 50.083 28.4619C50.2699 28.3662 50.4157 28.234 50.5205 28.0654C50.6299 27.8923 50.6868 27.6895 50.6914 27.457H52.5439C52.5394 27.9766 52.4004 28.4391 52.127 28.8447C51.8535 29.2458 51.4867 29.5625 51.0264 29.7949C50.5661 30.0228 50.0511 30.1367 49.4814 30.1367C48.9072 30.1367 48.4059 30.041 47.9775 29.8496C47.5537 29.6582 47.2005 29.3939 46.918 29.0566C46.6354 28.7148 46.4235 28.3184 46.2822 27.8672C46.141 27.4115 46.0703 26.9238 46.0703 26.4043V26.2061C46.0703 25.682 46.141 25.1943 46.2822 24.7432C46.4235 24.2874 46.6354 23.891 46.918 23.5537C47.2005 23.2119 47.5537 22.9453 47.9775 22.7539C48.4014 22.5625 48.8981 22.4668 49.4678 22.4668C50.0739 22.4668 50.6048 22.583 51.0605 22.8154C51.5208 23.0479 51.8809 23.3805 52.1406 23.8135C52.4049 24.2419 52.5394 24.75 52.5439 25.3379H50.6914C50.6868 25.0918 50.6344 24.8685 50.5342 24.668C50.4385 24.4674 50.2972 24.3079 50.1104 24.1895C49.9281 24.0664 49.7025 24.0049 49.4336 24.0049C49.1465 24.0049 48.9118 24.0664 48.7295 24.1895C48.5472 24.3079 48.4059 24.472 48.3057 24.6816C48.2054 24.8867 48.1348 25.1214 48.0938 25.3857C48.0573 25.6455 48.0391 25.9189 48.0391 26.2061V26.4043C48.0391 26.6914 48.0573 26.9671 48.0938 27.2314C48.1302 27.4958 48.1986 27.7305 48.2988 27.9355C48.4036 28.1406 48.5472 28.3024 48.7295 28.4209C48.9118 28.5394 49.1488 28.5986 49.4404 28.5986ZM58.0605 28.2295V22.6035H60.0293V30H58.1768L58.0605 28.2295ZM58.2793 26.7119L58.8604 26.6982C58.8604 27.1904 58.8034 27.6484 58.6895 28.0723C58.5755 28.4915 58.4046 28.8561 58.1768 29.166C57.9489 29.4714 57.6618 29.7106 57.3154 29.8838C56.9691 30.0524 56.5612 30.1367 56.0918 30.1367C55.7318 30.1367 55.3991 30.0866 55.0938 29.9863C54.793 29.8815 54.5332 29.7197 54.3145 29.501C54.1003 29.2777 53.9316 28.9928 53.8086 28.6465C53.6901 28.2956 53.6309 27.874 53.6309 27.3818V22.6035H55.5996V27.3955C55.5996 27.6143 55.6247 27.7988 55.6748 27.9492C55.7295 28.0996 55.8047 28.2227 55.9004 28.3184C55.9961 28.4141 56.1077 28.4824 56.2354 28.5234C56.3675 28.5645 56.5133 28.585 56.6729 28.585C57.0785 28.585 57.3975 28.5029 57.6299 28.3389C57.8669 28.1748 58.0332 27.9515 58.1289 27.6689C58.2292 27.3818 58.2793 27.0628 58.2793 26.7119ZM63.6113 19.5V30H61.6357V19.5H63.6113ZM69.2305 28.332V25.0371C69.2305 24.8001 69.1917 24.5973 69.1143 24.4287C69.0368 24.2555 68.916 24.1211 68.752 24.0254C68.5924 23.9297 68.3851 23.8818 68.1299 23.8818C67.9111 23.8818 67.722 23.9206 67.5625 23.998C67.403 24.071 67.2799 24.1781 67.1934 24.3193C67.1068 24.4561 67.0635 24.6178 67.0635 24.8047H65.0947C65.0947 24.4902 65.1676 24.1917 65.3135 23.9092C65.4593 23.6266 65.6712 23.3783 65.9492 23.1641C66.2272 22.9453 66.5576 22.7744 66.9404 22.6514C67.3278 22.5283 67.7607 22.4668 68.2393 22.4668C68.8135 22.4668 69.3239 22.5625 69.7705 22.7539C70.2171 22.9453 70.568 23.2324 70.8232 23.6152C71.083 23.998 71.2129 24.4766 71.2129 25.0508V28.2158C71.2129 28.6214 71.238 28.9541 71.2881 29.2139C71.3382 29.4691 71.4111 29.6924 71.5068 29.8838V30H69.5176C69.4219 29.7995 69.349 29.5488 69.2988 29.248C69.2533 28.9427 69.2305 28.6374 69.2305 28.332ZM69.4902 25.4951L69.5039 26.6094H68.4033C68.1436 26.6094 67.918 26.639 67.7266 26.6982C67.5352 26.7575 67.3779 26.8418 67.2549 26.9512C67.1318 27.056 67.0407 27.179 66.9814 27.3203C66.9268 27.4616 66.8994 27.6165 66.8994 27.7852C66.8994 27.9538 66.9382 28.1064 67.0156 28.2432C67.0931 28.3753 67.2048 28.4801 67.3506 28.5576C67.4964 28.6305 67.6673 28.667 67.8633 28.667C68.1595 28.667 68.417 28.6077 68.6357 28.4893C68.8545 28.3708 69.0231 28.2249 69.1416 28.0518C69.2646 27.8786 69.3285 27.7145 69.333 27.5596L69.8525 28.3936C69.7796 28.5804 69.6794 28.7741 69.5518 28.9746C69.4287 29.1751 69.2715 29.3643 69.0801 29.542C68.8887 29.7152 68.6585 29.8587 68.3896 29.9727C68.1208 30.082 67.8018 30.1367 67.4326 30.1367C66.9632 30.1367 66.5371 30.0433 66.1543 29.8564C65.776 29.665 65.4753 29.403 65.252 29.0703C65.0332 28.7331 64.9238 28.3503 64.9238 27.9219C64.9238 27.5345 64.9967 27.1904 65.1426 26.8896C65.2884 26.5889 65.5026 26.3359 65.7852 26.1309C66.0723 25.9212 66.43 25.764 66.8584 25.6592C67.2868 25.5498 67.7835 25.4951 68.3486 25.4951H69.4902ZM74.6992 24.2168V30H72.7305V22.6035H74.583L74.6992 24.2168ZM76.9277 22.5557L76.8936 24.3809C76.7979 24.3672 76.6816 24.3558 76.5449 24.3467C76.4128 24.333 76.292 24.3262 76.1826 24.3262C75.9046 24.3262 75.6631 24.3626 75.458 24.4355C75.2575 24.5039 75.0889 24.6064 74.9521 24.7432C74.82 24.8799 74.7197 25.0462 74.6514 25.2422C74.5876 25.4382 74.5511 25.6615 74.542 25.9121L74.1455 25.7891C74.1455 25.3105 74.1934 24.8708 74.2891 24.4697C74.3848 24.0641 74.5238 23.7109 74.7061 23.4102C74.8929 23.1094 75.1208 22.877 75.3896 22.7129C75.6585 22.5488 75.9661 22.4668 76.3125 22.4668C76.4219 22.4668 76.5335 22.4759 76.6475 22.4941C76.7614 22.5078 76.8548 22.5283 76.9277 22.5557Z" fill="white"/>
<path d="M28.7344 34.0254V42.8438H26.7656V32.6035H28.5908L28.7344 34.0254ZM33.417 36.2197V36.3633C33.417 36.901 33.3532 37.4001 33.2256 37.8604C33.1025 38.3206 32.9202 38.7217 32.6787 39.0635C32.4372 39.4007 32.1364 39.665 31.7764 39.8564C31.4209 40.0433 31.0107 40.1367 30.5459 40.1367C30.0947 40.1367 29.7028 40.0456 29.3701 39.8633C29.0374 39.681 28.7572 39.4258 28.5293 39.0977C28.306 38.765 28.126 38.3799 27.9893 37.9424C27.8525 37.5049 27.7477 37.0355 27.6748 36.5342V36.1582C27.7477 35.6204 27.8525 35.1283 27.9893 34.6816C28.126 34.2305 28.306 33.8408 28.5293 33.5127C28.7572 33.18 29.0352 32.9225 29.3633 32.7402C29.696 32.5579 30.0856 32.4668 30.5322 32.4668C31.0016 32.4668 31.4141 32.5557 31.7695 32.7334C32.1296 32.9111 32.4303 33.1663 32.6719 33.499C32.918 33.8317 33.1025 34.2282 33.2256 34.6885C33.3532 35.1488 33.417 35.6592 33.417 36.2197ZM31.4414 36.3633V36.2197C31.4414 35.9053 31.4141 35.6159 31.3594 35.3516C31.3092 35.0827 31.2272 34.848 31.1133 34.6475C31.0039 34.4469 30.8581 34.292 30.6758 34.1826C30.498 34.0687 30.2816 34.0117 30.0264 34.0117C29.7575 34.0117 29.5273 34.055 29.3359 34.1416C29.1491 34.2282 28.9964 34.3535 28.8779 34.5176C28.7594 34.6816 28.6706 34.8776 28.6113 35.1055C28.5521 35.3333 28.5156 35.5908 28.502 35.8779V36.8281C28.5247 37.1654 28.5885 37.4684 28.6934 37.7373C28.7982 38.0016 28.96 38.2113 29.1787 38.3662C29.3975 38.5212 29.6846 38.5986 30.04 38.5986C30.2998 38.5986 30.5186 38.5417 30.6963 38.4277C30.874 38.3092 31.0176 38.1475 31.127 37.9424C31.2409 37.7373 31.3206 37.5003 31.3662 37.2314C31.4163 36.9626 31.4414 36.6732 31.4414 36.3633ZM36.6094 34.2168V40H34.6406V32.6035H36.4932L36.6094 34.2168ZM38.8379 32.5557L38.8037 34.3809C38.708 34.3672 38.5918 34.3558 38.4551 34.3467C38.3229 34.333 38.2021 34.3262 38.0928 34.3262C37.8148 34.3262 37.5732 34.3626 37.3682 34.4355C37.1676 34.5039 36.999 34.6064 36.8623 34.7432C36.7301 34.8799 36.6299 35.0462 36.5615 35.2422C36.4977 35.4382 36.4613 35.6615 36.4521 35.9121L36.0557 35.7891C36.0557 35.3105 36.1035 34.8708 36.1992 34.4697C36.2949 34.0641 36.4339 33.7109 36.6162 33.4102C36.8031 33.1094 37.0309 32.877 37.2998 32.7129C37.5687 32.5488 37.8763 32.4668 38.2227 32.4668C38.332 32.4668 38.4437 32.4759 38.5576 32.4941C38.6715 32.5078 38.765 32.5283 38.8379 32.5557ZM39.248 36.377V36.2334C39.248 35.6911 39.3255 35.1921 39.4805 34.7363C39.6354 34.276 39.861 33.8773 40.1572 33.54C40.4535 33.2028 40.818 32.9408 41.251 32.7539C41.6839 32.5625 42.1807 32.4668 42.7412 32.4668C43.3018 32.4668 43.8008 32.5625 44.2383 32.7539C44.6758 32.9408 45.0426 33.2028 45.3389 33.54C45.6396 33.8773 45.8675 34.276 46.0225 34.7363C46.1774 35.1921 46.2549 35.6911 46.2549 36.2334V36.377C46.2549 36.9147 46.1774 37.4137 46.0225 37.874C45.8675 38.3298 45.6396 38.7285 45.3389 39.0703C45.0426 39.4076 44.6781 39.6696 44.2451 39.8564C43.8122 40.0433 43.3154 40.1367 42.7549 40.1367C42.1943 40.1367 41.6953 40.0433 41.2578 39.8564C40.8249 39.6696 40.458 39.4076 40.1572 39.0703C39.861 38.7285 39.6354 38.3298 39.4805 37.874C39.3255 37.4137 39.248 36.9147 39.248 36.377ZM41.2168 36.2334V36.377C41.2168 36.6868 41.2441 36.9762 41.2988 37.2451C41.3535 37.514 41.4401 37.751 41.5586 37.9561C41.6816 38.1566 41.8411 38.3138 42.0371 38.4277C42.2331 38.5417 42.4723 38.5986 42.7549 38.5986C43.0283 38.5986 43.263 38.5417 43.459 38.4277C43.6549 38.3138 43.8122 38.1566 43.9307 37.9561C44.0492 37.751 44.1357 37.514 44.1904 37.2451C44.2497 36.9762 44.2793 36.6868 44.2793 36.377V36.2334C44.2793 35.9326 44.2497 35.6501 44.1904 35.3857C44.1357 35.1169 44.0469 34.8799 43.9238 34.6748C43.8053 34.4652 43.6481 34.3011 43.4521 34.1826C43.2562 34.0641 43.0192 34.0049 42.7412 34.0049C42.4632 34.0049 42.2262 34.0641 42.0303 34.1826C41.8389 34.3011 41.6816 34.4652 41.5586 34.6748C41.4401 34.8799 41.3535 35.1169 41.2988 35.3857C41.2441 35.6501 41.2168 35.9326 41.2168 36.2334ZM52.1475 32.6035H53.9316V39.7539C53.9316 40.4284 53.7812 41.0003 53.4805 41.4697C53.1842 41.9437 52.7695 42.3014 52.2363 42.543C51.7031 42.7891 51.0833 42.9121 50.377 42.9121C50.0671 42.9121 49.7389 42.8711 49.3926 42.7891C49.0508 42.707 48.7227 42.5794 48.4082 42.4062C48.0983 42.2331 47.8385 42.0143 47.6289 41.75L48.4971 40.5879C48.7249 40.8522 48.9893 41.0573 49.29 41.2031C49.5908 41.3535 49.9235 41.4287 50.2881 41.4287C50.6436 41.4287 50.9443 41.3626 51.1904 41.2305C51.4365 41.1029 51.6257 40.9137 51.7578 40.6631C51.89 40.417 51.9561 40.1185 51.9561 39.7676V34.3125L52.1475 32.6035ZM47.1709 36.3906V36.2471C47.1709 35.682 47.2393 35.1693 47.376 34.709C47.5173 34.2441 47.7155 33.8454 47.9707 33.5127C48.2305 33.18 48.5449 32.9225 48.9141 32.7402C49.2832 32.5579 49.7002 32.4668 50.165 32.4668C50.6572 32.4668 51.0697 32.5579 51.4023 32.7402C51.735 32.9225 52.0085 33.1823 52.2227 33.5195C52.4368 33.8522 52.6032 34.2464 52.7217 34.7021C52.8447 35.1533 52.9404 35.6478 53.0088 36.1855V36.5C52.9404 37.015 52.8379 37.4935 52.7012 37.9355C52.5645 38.3776 52.3844 38.765 52.1611 39.0977C51.9378 39.4258 51.6598 39.681 51.3271 39.8633C50.999 40.0456 50.6071 40.1367 50.1514 40.1367C49.6956 40.1367 49.2832 40.0433 48.9141 39.8564C48.5495 39.6696 48.2373 39.4076 47.9775 39.0703C47.7178 38.7331 47.5173 38.3366 47.376 37.8809C47.2393 37.4251 47.1709 36.9284 47.1709 36.3906ZM49.1396 36.2471V36.3906C49.1396 36.696 49.1693 36.9808 49.2285 37.2451C49.2878 37.5094 49.3789 37.7441 49.502 37.9492C49.6296 38.1497 49.7868 38.307 49.9736 38.4209C50.165 38.5303 50.3906 38.585 50.6504 38.585C51.0104 38.585 51.3044 38.5098 51.5322 38.3594C51.7601 38.2044 51.931 37.9925 52.0449 37.7236C52.1589 37.4548 52.2249 37.1449 52.2432 36.7939V35.8984C52.234 35.6113 52.1953 35.3538 52.127 35.126C52.0586 34.8936 51.9629 34.6953 51.8398 34.5312C51.7168 34.3672 51.5573 34.2396 51.3613 34.1484C51.1654 34.0573 50.9329 34.0117 50.6641 34.0117C50.4043 34.0117 50.1787 34.071 49.9873 34.1895C49.8005 34.3034 49.6432 34.4606 49.5156 34.6611C49.3926 34.8617 49.2992 35.0986 49.2354 35.3721C49.1715 35.641 49.1396 35.9326 49.1396 36.2471ZM57.4316 34.2168V40H55.4629V32.6035H57.3154L57.4316 34.2168ZM59.6602 32.5557L59.626 34.3809C59.5303 34.3672 59.4141 34.3558 59.2773 34.3467C59.1452 34.333 59.0244 34.3262 58.915 34.3262C58.637 34.3262 58.3955 34.3626 58.1904 34.4355C57.9899 34.5039 57.8213 34.6064 57.6846 34.7432C57.5524 34.8799 57.4521 35.0462 57.3838 35.2422C57.32 35.4382 57.2835 35.6615 57.2744 35.9121L56.8779 35.7891C56.8779 35.3105 56.9258 34.8708 57.0215 34.4697C57.1172 34.0641 57.2562 33.7109 57.4385 33.4102C57.6253 33.1094 57.8532 32.877 58.1221 32.7129C58.391 32.5488 58.6986 32.4668 59.0449 32.4668C59.1543 32.4668 59.266 32.4759 59.3799 32.4941C59.4938 32.5078 59.5872 32.5283 59.6602 32.5557ZM64.3496 38.332V35.0371C64.3496 34.8001 64.3109 34.5973 64.2334 34.4287C64.1559 34.2555 64.0352 34.1211 63.8711 34.0254C63.7116 33.9297 63.5042 33.8818 63.249 33.8818C63.0303 33.8818 62.8411 33.9206 62.6816 33.998C62.5221 34.071 62.3991 34.1781 62.3125 34.3193C62.2259 34.4561 62.1826 34.6178 62.1826 34.8047H60.2139C60.2139 34.4902 60.2868 34.1917 60.4326 33.9092C60.5785 33.6266 60.7904 33.3783 61.0684 33.1641C61.3464 32.9453 61.6768 32.7744 62.0596 32.6514C62.4469 32.5283 62.8799 32.4668 63.3584 32.4668C63.9326 32.4668 64.443 32.5625 64.8896 32.7539C65.3363 32.9453 65.6872 33.2324 65.9424 33.6152C66.2021 33.998 66.332 34.4766 66.332 35.0508V38.2158C66.332 38.6214 66.3571 38.9541 66.4072 39.2139C66.4574 39.4691 66.5303 39.6924 66.626 39.8838V40H64.6367C64.541 39.7995 64.4681 39.5488 64.418 39.248C64.3724 38.9427 64.3496 38.6374 64.3496 38.332ZM64.6094 35.4951L64.623 36.6094H63.5225C63.2627 36.6094 63.0371 36.639 62.8457 36.6982C62.6543 36.7575 62.4971 36.8418 62.374 36.9512C62.251 37.056 62.1598 37.179 62.1006 37.3203C62.0459 37.4616 62.0186 37.6165 62.0186 37.7852C62.0186 37.9538 62.0573 38.1064 62.1348 38.2432C62.2122 38.3753 62.3239 38.4801 62.4697 38.5576C62.6156 38.6305 62.7865 38.667 62.9824 38.667C63.2786 38.667 63.5361 38.6077 63.7549 38.4893C63.9736 38.3708 64.1423 38.2249 64.2607 38.0518C64.3838 37.8786 64.4476 37.7145 64.4521 37.5596L64.9717 38.3936C64.8988 38.5804 64.7985 38.7741 64.6709 38.9746C64.5479 39.1751 64.3906 39.3643 64.1992 39.542C64.0078 39.7152 63.7777 39.8587 63.5088 39.9727C63.2399 40.082 62.9209 40.1367 62.5518 40.1367C62.0824 40.1367 61.6562 40.0433 61.2734 39.8564C60.8952 39.665 60.5944 39.403 60.3711 39.0703C60.1523 38.7331 60.043 38.3503 60.043 37.9219C60.043 37.5345 60.1159 37.1904 60.2617 36.8896C60.4076 36.5889 60.6217 36.3359 60.9043 36.1309C61.1914 35.9212 61.5492 35.764 61.9775 35.6592C62.4059 35.5498 62.9027 35.4951 63.4678 35.4951H64.6094ZM69.8184 34.1348V40H67.8428V32.6035H69.6953L69.8184 34.1348ZM69.5449 36.042H68.998C68.998 35.527 69.0596 35.0531 69.1826 34.6201C69.3102 34.1826 69.4948 33.8044 69.7363 33.4854C69.9824 33.1618 70.2855 32.9111 70.6455 32.7334C71.0055 32.5557 71.4225 32.4668 71.8965 32.4668C72.2246 32.4668 72.5254 32.5169 72.7988 32.6172C73.0723 32.7129 73.307 32.8656 73.5029 33.0752C73.7035 33.2803 73.8584 33.5492 73.9678 33.8818C74.0771 34.21 74.1318 34.6042 74.1318 35.0645V40H72.1631V35.2832C72.1631 34.946 72.1175 34.6862 72.0264 34.5039C71.9352 34.3216 71.8053 34.194 71.6367 34.1211C71.4727 34.0482 71.2744 34.0117 71.042 34.0117C70.7868 34.0117 70.5635 34.0641 70.3721 34.1689C70.1852 34.2738 70.0303 34.4196 69.9072 34.6064C69.7842 34.7887 69.693 35.0029 69.6338 35.249C69.5745 35.4951 69.5449 35.7594 69.5449 36.042ZM73.9473 35.8164L73.2432 35.9053C73.2432 35.4222 73.3024 34.9733 73.4209 34.5586C73.5439 34.1439 73.724 33.7793 73.9609 33.4648C74.2025 33.1504 74.501 32.9066 74.8564 32.7334C75.2119 32.5557 75.6221 32.4668 76.0869 32.4668C76.4424 32.4668 76.766 32.5192 77.0576 32.624C77.3493 32.7243 77.5977 32.8861 77.8027 33.1094C78.0124 33.3281 78.1719 33.6152 78.2812 33.9707C78.3952 34.3262 78.4521 34.7614 78.4521 35.2764V40H76.4766V35.2764C76.4766 34.9346 76.431 34.6748 76.3398 34.4971C76.2533 34.3148 76.1257 34.1895 75.957 34.1211C75.793 34.0482 75.597 34.0117 75.3691 34.0117C75.1322 34.0117 74.9248 34.0596 74.7471 34.1553C74.5693 34.2464 74.4212 34.374 74.3027 34.5381C74.1842 34.7021 74.0954 34.8936 74.0361 35.1123C73.9769 35.3265 73.9473 35.5612 73.9473 35.8164Z" fill="white"/>
</svg>
