<svg width="225" height="103" viewBox="0 0 225 103" fill="none" xmlns="http://www.w3.org/2000/svg">
<g opacity="0.8">
<path d="M217.628 43.2792C216.291 41.3235 214.829 39.3699 213.224 37.58L210.921 39.6042C212.415 41.3301 213.837 43.1377 215.085 44.9923L217.598 43.287L217.628 43.2792ZM208.192 32.4556C206.422 30.8662 204.55 29.3665 202.578 27.9564L200.803 30.4333C202.656 31.7501 204.483 33.1993 206.135 34.6955L208.184 32.4265L208.192 32.4556ZM196.521 24.1387C194.457 22.9719 192.271 21.9316 190.079 20.9868L188.896 23.8054C191.013 24.7076 193.067 25.7207 195.049 26.8156L196.521 24.1387ZM183.348 18.5065C181.065 17.8049 178.718 17.2143 176.402 16.7404L175.801 19.747C178.043 20.1782 180.257 20.7418 182.445 21.4376L183.348 18.5065ZM169.316 15.7314C166.946 15.5222 164.512 15.4239 162.146 15.4637L162.183 18.5182C164.453 18.4727 166.762 18.5731 169.037 18.7766L169.316 15.7314ZM154.967 15.9801C152.577 16.2768 150.196 16.7271 147.912 17.3077L148.644 20.2699C150.839 19.7128 153.104 19.2937 155.37 18.9991L154.967 15.9801ZM142.128 22.3283L141.026 19.4969C138.988 20.2931 137.01 21.1982 135.114 22.1752L134.483 22.5009L135.92 25.1801L136.522 24.8623C138.301 23.9165 140.199 23.064 142.099 22.3361L142.128 22.3283ZM130.097 28.7728L128.392 26.2592C126.516 27.5435 124.583 28.9681 122.69 30.5385L124.606 32.902C126.456 31.4056 128.309 30.0337 130.134 28.7941L130.097 28.7728ZM119.348 37.4375L117.282 35.2085C115.55 36.7981 113.863 38.4383 112.192 40.1368L114.36 42.2763C115.981 40.6225 117.646 39.0194 119.356 37.4667L119.348 37.4375ZM109.506 47.2666L107.287 45.1719C105.941 46.5646 104.631 47.9787 103.292 49.4006L102.465 50.279L104.683 52.3736L105.511 51.4952C106.821 50.0811 108.167 48.6884 109.477 47.2744L109.506 47.2666ZM99.8603 57.4806L97.6711 55.3782C96.0583 57.0611 94.4376 58.7148 92.7722 60.318L94.8897 62.5023C96.5764 60.8621 98.2184 59.1713 99.8603 57.4806ZM89.6813 67.3373L87.6572 65.0343C85.8594 66.6105 84.0673 68.0911 82.3237 69.4026L84.1593 71.8188C85.9535 70.4625 87.7961 68.937 89.6735 67.3082L89.6813 67.3373ZM78.3159 75.9173L76.6824 73.3219C75.5296 74.0373 74.3397 74.7313 73.1129 75.404C72.3215 75.8349 71.4932 76.2445 70.6941 76.6462L71.9931 79.3938C72.8506 78.9764 73.7081 78.559 74.5499 78.0833C75.8351 77.395 77.0755 76.6561 78.2789 75.8959L78.3159 75.9173ZM65.3717 82.106L64.378 79.2142C63.1469 79.6378 61.9003 80.0032 60.6458 80.3393C59.683 80.5973 58.7495 80.8474 57.7711 81.0471L58.4147 84.0327C59.4223 83.8252 60.422 83.5886 61.4431 83.315C62.756 82.9632 64.061 82.5824 65.3504 82.1431L65.3717 82.106ZM51.0563 82.1271C48.8036 82.3555 46.4905 82.4749 44.2044 82.4621L44.175 85.503C46.5564 85.5216 48.994 85.4 51.3342 85.1482L51.0193 82.1057L51.0563 82.1271ZM37.377 82.0714C35.1238 81.831 32.8315 81.4446 30.611 80.9764L29.9725 83.9617C32.2961 84.4647 34.6838 84.8568 37.0616 85.0952L37.4062 82.0636L37.377 82.0714ZM24.0017 79.1827C21.8354 78.4499 19.6749 77.6217 17.6154 76.7039L16.358 79.4798C18.5285 80.4617 20.763 81.3326 23.0325 82.1003L23.9804 79.2197L24.0017 79.1827ZM11.5687 73.5088C9.6003 72.3477 7.71738 71.0387 5.91416 69.677L4.05711 72.082C5.94994 73.5447 7.936 74.8887 9.98615 76.1216L11.5687 73.5088Z" fill="#1C594F"/>
<path d="M200.131 43.5585L200.703 40.5597L215.491 43.3514L217.173 28.3919L220.213 28.7657L218.145 46.9553L200.131 43.5585Z" fill="#1C594F"/>
</g>
</svg>
