<svg width="23" height="16" viewBox="0 0 23 16" fill="none" xmlns="http://www.w3.org/2000/svg">
<path d="M11.5 0.861816C6.5 0.861816 2.23 3.97182 0.5 8.36182C2.23 12.7518 6.5 15.8618 11.5 15.8618C16.5 15.8618 20.77 12.7518 22.5 8.36182C20.77 3.97182 16.5 0.861816 11.5 0.861816ZM11.5 13.3618C8.74 13.3618 6.5 11.1218 6.5 8.36182C6.5 5.60182 8.74 3.36182 11.5 3.36182C14.26 3.36182 16.5 5.60182 16.5 8.36182C16.5 11.1218 14.26 13.3618 11.5 13.3618ZM11.5 5.36182C9.84 5.36182 8.5 6.70182 8.5 8.36182C8.5 10.0218 9.84 11.3618 11.5 11.3618C13.16 11.3618 14.5 10.0218 14.5 8.36182C14.5 6.70182 13.16 5.36182 11.5 5.36182Z" fill="#00FFCC"/>
</svg>
