<svg width="24" height="16" viewBox="0 0 24 16" fill="none" xmlns="http://www.w3.org/2000/svg">
<path d="M1.96208 4.87036L-7.15256e-07 2.79237H4.3475C6.602 1.29875 9.26611 0.5 11.9933 0.5C14.7206 0.5 17.3847 1.29875 19.6392 2.79237H24L22.0379 4.87036C23.2053 5.91866 23.8976 7.37493 23.963 8.91954C24.0283 10.4641 23.4614 11.9709 22.3866 13.1091C21.3117 14.2473 19.8168 14.9239 18.23 14.9905C16.6431 15.0571 15.094 14.5081 13.9225 13.4642L12 15.5L10.0788 13.4654C9.22292 14.2372 8.15439 14.7493 7.00405 14.9389C5.85371 15.1286 4.67152 14.9875 3.6023 14.533C2.53308 14.0786 1.62327 13.3305 0.984318 12.3803C0.34537 11.4302 0.00503279 10.3193 0.00499908 9.1837H0.0062503C0.005201 8.37174 0.178663 7.56854 0.515492 6.82571C0.852321 6.08288 1.34507 5.41683 1.96208 4.87036ZM17.9975 13.1333C18.8001 13.1333 19.5846 12.9016 20.252 12.4676C20.9193 12.0337 21.4394 11.4168 21.7465 10.6951C22.0537 9.97344 22.134 9.17931 21.9774 8.41317C21.8209 7.64703 21.4344 6.94329 20.8669 6.39093C20.2994 5.83857 19.5763 5.46241 18.7892 5.31002C18.002 5.15762 17.1861 5.23584 16.4446 5.53477C15.7031 5.83371 15.0694 6.33993 14.6235 6.98943C14.1776 7.63894 13.9396 8.40254 13.9396 9.1837C13.9396 10.2312 14.3671 11.2358 15.1281 11.9765C15.8891 12.7171 16.9213 13.1333 17.9975 13.1333ZM12 9.06974C12 6.47062 13.9425 4.24055 16.5037 3.28713C15.0768 2.70837 13.5461 2.4104 12.0002 2.4104C10.4543 2.4104 8.92366 2.70837 7.49667 3.28713C10.0579 4.24096 12 6.47103 12 9.06974ZM6.005 13.1333H6.00542C7.08179 13.1332 8.11406 12.717 8.87514 11.9762C9.63622 11.2354 10.0638 10.2306 10.0637 9.18299C10.0637 8.13535 9.63611 7.13064 8.87499 6.38986C8.11387 5.64908 7.08158 5.23291 6.00521 5.23291C4.92883 5.23291 3.89654 5.64908 3.13542 6.38986C2.3743 7.13064 1.94669 8.13535 1.94666 9.18299C1.94664 10.2306 2.37419 11.2354 3.13527 11.9762C3.89636 12.717 4.92863 13.1332 6.005 13.1333ZM17.9975 7.113H17.9979C18.4187 7.113 18.83 7.23445 19.1799 7.46198C19.5298 7.68951 19.8024 8.01291 19.9635 8.39128C20.1245 8.76965 20.1666 9.18599 20.0845 9.58767C20.0024 9.98934 19.7998 10.3583 19.5023 10.6479C19.2047 10.9375 18.8257 11.1347 18.413 11.2146C18.0003 11.2945 17.5725 11.2535 17.1838 11.0968C16.795 10.94 16.4627 10.6746 16.229 10.3341C15.9952 9.99359 15.8704 9.59324 15.8704 9.1837V9.17923C15.8707 8.90763 15.9259 8.63873 16.033 8.3879C16.14 8.13707 16.2968 7.90921 16.4943 7.71735C16.6918 7.52548 16.9262 7.37336 17.1841 7.26966C17.4421 7.16597 17.7184 7.11274 17.9975 7.113ZM6.005 7.113C6.42578 7.113 6.83711 7.23445 7.18698 7.46198C7.53684 7.68951 7.80953 8.01291 7.97055 8.39128C8.13158 8.76965 8.17371 9.18599 8.09162 9.58767C8.00953 9.98934 7.80691 10.3583 7.50937 10.6479C7.21183 10.9375 6.83275 11.1347 6.42005 11.2146C6.00736 11.2945 5.57959 11.2535 5.19084 11.0968C4.80209 10.94 4.46982 10.6746 4.23605 10.3341C4.00228 9.99359 3.8775 9.59324 3.8775 9.1837C3.8775 8.63451 4.10165 8.10782 4.50063 7.71949C4.89961 7.33116 5.44075 7.113 6.005 7.113Z" fill="#00FFCC"/>
</svg>
