<svg width="38" height="37" viewBox="0 0 38 37" fill="none" xmlns="http://www.w3.org/2000/svg">
<path opacity="0.5" d="M13.581 3.15898C13.4717 3.15898 13.3669 3.2024 13.2896 3.27967C13.2123 3.35695 13.1689 3.46177 13.1689 3.57106V11.8159C13.1689 12.1437 13.0387 12.4582 12.8068 12.69C12.575 12.9219 12.2606 13.0521 11.9327 13.0521H3.69117C3.58188 13.0521 3.47707 13.0955 3.39979 13.1728C3.32251 13.2501 3.2791 13.3549 3.2791 13.4642V24.1782C3.2791 24.4056 3.46371 24.5902 3.69117 24.5902H11.9327C12.2606 24.5902 12.575 24.7205 12.8068 24.9523C13.0387 25.1842 13.1689 25.4986 13.1689 25.8265V34.0696C13.1689 34.2971 13.3535 34.4817 13.581 34.4817H24.295C24.4043 34.4817 24.5091 34.4383 24.5864 34.361C24.6636 34.2837 24.7071 34.1789 24.7071 34.0696V25.8265C24.7071 25.4986 24.8373 25.1842 25.0691 24.9523C25.301 24.7205 25.6154 24.5902 25.9433 24.5902H34.1848C34.2941 24.5902 34.3989 24.5468 34.4762 24.4695C34.5535 24.3923 34.5969 24.2874 34.5969 24.1782V13.4642C34.5969 13.3549 34.5535 13.2501 34.4762 13.1728C34.3989 13.0955 34.2941 13.0521 34.1848 13.0521H25.9433C25.6154 13.0521 25.301 12.9219 25.0691 12.69C24.8373 12.4582 24.7071 12.1437 24.7071 11.8159V3.57271C24.7071 3.46342 24.6636 3.3586 24.5864 3.28132C24.5091 3.20404 24.4043 3.16063 24.295 3.16063L13.581 3.15898ZM10.6965 3.57106C10.6965 1.97879 11.9887 0.686523 13.581 0.686523H24.295C25.8872 0.686523 27.1795 1.97879 27.1795 3.57106V10.5796H34.1848C35.7771 10.5796 37.0693 11.8703 37.0693 13.4642V24.1782C37.0693 24.9432 36.7654 25.6769 36.2245 26.2178C35.6835 26.7588 34.9498 27.0627 34.1848 27.0627H27.1795V34.0696C27.1795 34.8347 26.8756 35.5684 26.3347 36.1093C25.7937 36.6503 25.06 36.9542 24.295 36.9542H13.581C12.816 36.9542 12.0823 36.6503 11.5413 36.1093C11.0004 35.5684 10.6965 34.8347 10.6965 34.0696V27.0627H3.69117C2.92615 27.0627 2.19246 26.7588 1.6515 26.2178C1.11055 25.6769 0.806641 24.9432 0.806641 24.1782V13.4642C0.806641 11.8719 2.09891 10.5796 3.69117 10.5796H10.6965V3.57106Z" fill="#27BBA2"/>
</svg>
