<svg width="23" height="16" viewBox="0 0 23 16" fill="none" xmlns="http://www.w3.org/2000/svg">
<path opacity="0.5" d="M11.6426 2.96875C13.4813 2.96264 15.2845 3.47553 16.8447 4.44848C18.4049 5.42142 19.659 6.81491 20.4626 8.46875C18.8126 11.8387 15.4426 13.9688 11.6426 13.9688C7.84258 13.9688 4.47258 11.8387 2.82258 8.46875C3.6262 6.81491 4.88021 5.42142 6.44046 4.44848C8.0007 3.47553 9.80384 2.96264 11.6426 2.96875ZM11.6426 0.96875C6.64258 0.96875 2.37258 4.07875 0.642578 8.46875C2.37258 12.8587 6.64258 15.9688 11.6426 15.9688C16.6426 15.9688 20.9126 12.8587 22.6426 8.46875C20.9126 4.07875 16.6426 0.96875 11.6426 0.96875ZM11.6426 5.96875C12.3056 5.96875 12.9415 6.23214 13.4103 6.70098C13.8792 7.16982 14.1426 7.80571 14.1426 8.46875C14.1426 9.13179 13.8792 9.76768 13.4103 10.2365C12.9415 10.7054 12.3056 10.9688 11.6426 10.9688C10.9795 10.9688 10.3437 10.7054 9.87481 10.2365C9.40597 9.76768 9.14258 9.13179 9.14258 8.46875C9.14258 7.80571 9.40597 7.16982 9.87481 6.70098C10.3437 6.23214 10.9795 5.96875 11.6426 5.96875ZM11.6426 3.96875C9.16258 3.96875 7.14258 5.98875 7.14258 8.46875C7.14258 10.9487 9.16258 12.9688 11.6426 12.9688C14.1226 12.9688 16.1426 10.9487 16.1426 8.46875C16.1426 5.98875 14.1226 3.96875 11.6426 3.96875Z" fill="#27BBA2"/>
</svg>
