<svg width="17" height="18" viewBox="0 0 17 18" fill="none" xmlns="http://www.w3.org/2000/svg">
<path d="M7.18473 10.4998L5.39307 8.70817C5.24029 8.55539 5.04584 8.479 4.80973 8.479C4.57362 8.479 4.37918 8.55539 4.2264 8.70817C4.07362 8.86095 3.99723 9.05539 3.99723 9.2915C3.99723 9.52762 4.07362 9.72206 4.2264 9.87484L6.6014 12.2498C6.76807 12.4165 6.96251 12.4998 7.18473 12.4998C7.40696 12.4998 7.6014 12.4165 7.76807 12.2498L12.4764 7.5415C12.6292 7.38873 12.7056 7.19428 12.7056 6.95817C12.7056 6.72206 12.6292 6.52762 12.4764 6.37484C12.3236 6.22206 12.1292 6.14567 11.8931 6.14567C11.657 6.14567 11.4625 6.22206 11.3097 6.37484L7.18473 10.4998ZM8.3514 17.3332C7.19862 17.3332 6.11529 17.1143 5.1014 16.6765C4.08751 16.2387 3.20557 15.6451 2.45557 14.8957C1.70557 14.1457 1.11196 13.2637 0.674733 12.2498C0.237511 11.2359 0.018622 10.1526 0.0180664 8.99984C0.0180664 7.84706 0.236955 6.76373 0.674733 5.74984C1.11251 4.73595 1.70612 3.854 2.45557 3.104C3.20557 2.354 4.08751 1.76039 5.1014 1.32317C6.11529 0.885948 7.19862 0.667059 8.3514 0.666504C9.50418 0.666504 10.5875 0.885393 11.6014 1.32317C12.6153 1.76095 13.4972 2.35456 14.2472 3.104C14.9972 3.854 15.5911 4.73595 16.0289 5.74984C16.4667 6.76373 16.6853 7.84706 16.6847 8.99984C16.6847 10.1526 16.4658 11.2359 16.0281 12.2498C15.5903 13.2637 14.9967 14.1457 14.2472 14.8957C13.4972 15.6457 12.6153 16.2396 11.6014 16.6773C10.5875 17.1151 9.50418 17.3337 8.3514 17.3332Z" fill="#25AE87"/>
</svg>
