<svg width="158" height="26" viewBox="0 0 158 26" fill="none" xmlns="http://www.w3.org/2000/svg">
<path d="M13 0L15.9187 8.98278H25.3637L17.7225 14.5344L20.6412 23.5172L13 17.9656L5.35879 23.5172L8.27747 14.5344L0.636266 8.98278H10.0813L13 0Z" fill="#FFD200"/>
<path d="M46 0L48.9187 8.98278H58.3637L50.7225 14.5344L53.6412 23.5172L46 17.9656L38.3588 23.5172L41.2775 14.5344L33.6363 8.98278H43.0813L46 0Z" fill="#FFD200"/>
<path d="M79 0L81.9187 8.98278H91.3637L83.7225 14.5344L86.6412 23.5172L79 17.9656L71.3588 23.5172L74.2775 14.5344L66.6363 8.98278H76.0813L79 0Z" fill="#FFD200"/>
<path d="M112 0L114.919 8.98278H124.364L116.723 14.5344L119.641 23.5172L112 17.9656L104.359 23.5172L107.277 14.5344L99.6363 8.98278H109.081L112 0Z" fill="#FFD200"/>
<path d="M145 0L147.919 8.98278H157.364L149.723 14.5344L152.641 23.5172L145 17.9656L137.359 23.5172L140.277 14.5344L132.636 8.98278H142.081L145 0Z" fill="#FAFAFA"/>
</svg>
