<svg width="100" height="95" viewBox="0 0 100 95" fill="none" xmlns="http://www.w3.org/2000/svg">
<path d="M77.7112 41.1769C77.139 41.9017 76.5668 42.6265 75.9946 43.3512V78.2546C75.9946 81.23 73.5533 83.6713 70.5779 83.6713H16.6398C13.6263 83.6713 11.2231 81.23 11.2231 78.2546V24.3546C11.2231 21.3411 13.6644 18.9379 16.6398 18.9379H67.5262C69.548 16.4966 71.4553 14.2842 73.4388 12.0717L75.1172 10.1263L76.109 9.0582C74.3925 8.40972 72.4852 8.06641 70.5398 8.06641H16.6398C7.67555 8.06641 0.351562 15.3522 0.351562 24.3546V78.2546C0.351562 87.2188 7.63741 94.5428 16.6398 94.5428H70.5398C79.504 94.5428 86.828 87.257 86.828 78.2546V30.1147C84.0052 33.3952 81.0298 36.9809 77.7112 41.1769Z" fill="#25AE87"/>
<path d="M99.0728 3.2221C97.5088 0.590038 94.0757 -0.287314 91.4437 1.27666C89.956 2.15401 88.5827 3.1458 87.2476 4.21388C86.561 4.74793 85.9507 5.28197 85.3022 5.85415C84.6919 6.42634 84.0815 6.99853 83.4712 7.57071C82.2505 8.71509 81.1443 9.97389 79.9999 11.1946L78.3215 13.0256L76.6812 14.8947C74.4688 17.3742 72.3326 19.9299 70.1965 22.4857L67.0304 26.3384L63.9787 30.2674C59.9353 35.5316 55.9681 40.8338 52.1917 46.2505C50.2844 48.9589 48.4534 51.7054 46.5842 54.4137C45.8976 55.4436 45.2491 56.4736 44.5625 57.5035C43.113 56.2828 41.816 54.9477 40.6335 53.4601C38.2303 50.4847 36.3993 46.8227 34.8353 42.8174L34.7972 42.7411C33.7673 40.109 30.83 38.6977 28.1217 39.575C25.2608 40.4905 23.6968 43.5422 24.5741 46.4031C25.3371 48.8063 26.2144 51.1713 27.2825 53.5364C28.3887 55.9014 29.6857 58.2283 31.2496 60.4407C32.8136 62.6532 34.6828 64.7131 36.7045 66.5441C38.7262 68.3751 40.9005 69.9772 43.1511 71.3504C45.8595 73.0288 49.4833 72.2659 51.2762 69.5957L51.3906 69.4431C53.1835 66.7729 55.0526 64.1409 56.9217 61.547C58.7909 58.9149 60.66 56.321 62.5673 53.7271C66.3819 48.5774 70.2728 43.4277 74.2781 38.4306C78.2834 33.4335 82.365 28.5127 86.5991 23.7445L88.2013 21.9517L89.8034 20.197C90.8715 19.0526 91.9395 17.8701 93.0076 16.6875C94.0757 15.505 95.0675 14.2844 96.0593 13.0256C97.0511 11.8049 98.0047 10.5079 98.8821 9.09654L98.9965 8.90581C100.065 7.26555 100.179 5.05309 99.0728 3.2221Z" fill="#25AE87"/>
</svg>
