<svg width="225" height="103" viewBox="0 0 225 103" fill="none" xmlns="http://www.w3.org/2000/svg">
<g opacity="0.8">
<path d="M6.99453 43.2792C8.33152 41.3235 9.79302 39.3699 11.3983 37.58L13.7014 39.6042C12.2071 41.3301 10.7847 43.1377 9.53729 44.9923L7.02368 43.287L6.99453 43.2792ZM16.4298 32.4556C18.2002 30.8662 20.0717 29.3665 22.0443 27.9564L23.8195 30.4333C21.9658 31.7501 20.1391 33.1993 18.4875 34.6955L16.4376 32.4265L16.4298 32.4556ZM28.1015 24.1387C30.1651 22.9719 32.3513 21.9316 34.5431 20.9868L35.7265 23.8054C33.6087 24.7076 31.5549 25.7207 29.573 26.8156L28.1015 24.1387ZM41.2738 18.5065C43.5568 17.8049 45.9039 17.2143 48.2196 16.7404L48.8211 19.747C46.5793 20.1782 44.3646 20.7418 42.1769 21.4376L41.2738 18.5065ZM55.3066 15.7314C57.6765 15.5222 60.1105 15.4239 62.4763 15.4637L62.4396 18.5182C60.1691 18.4727 57.8596 18.5731 55.585 18.7766L55.3066 15.7314ZM69.6548 15.9801C72.0455 16.2768 74.4263 16.7271 76.7097 17.3077L75.9785 20.2699C73.7827 19.7128 71.5185 19.2937 69.2523 18.9991L69.6548 15.9801ZM82.4937 22.3283L83.5964 19.4969C85.6344 20.2931 87.6119 21.1982 89.5076 22.1752L90.1395 22.5009L88.7025 25.1801L88.0997 24.8623C86.3207 23.9165 84.4228 23.064 82.5229 22.3361L82.4937 22.3283ZM94.5251 28.7728L96.2305 26.2592C98.1064 27.5435 100.039 28.9681 101.932 30.5385L100.016 32.902C98.166 31.4056 96.3135 30.0337 94.4881 28.7941L94.5251 28.7728ZM105.274 37.4375L107.341 35.2085C109.072 36.7981 110.759 38.4383 112.43 40.1368L110.262 42.2763C108.642 40.6225 106.976 39.0194 105.266 37.4667L105.274 37.4375ZM115.116 47.2666L117.335 45.1719C118.681 46.5646 119.991 47.9787 121.33 49.4006L122.157 50.279L119.939 52.3736L119.111 51.4952C117.802 50.0811 116.455 48.6884 115.145 47.2744L115.116 47.2666ZM124.762 57.4806L126.951 55.3782C128.564 57.0611 130.184 58.7148 131.85 60.318L129.732 62.5023C128.046 60.8621 126.404 59.1713 124.762 57.4806ZM134.941 67.3373L136.965 65.0343C138.763 66.6105 140.555 68.0911 142.298 69.4026L140.463 71.8188C138.669 70.4625 136.826 68.937 134.949 67.3082L134.941 67.3373ZM146.306 75.9173L147.94 73.3219C149.092 74.0373 150.282 74.7313 151.509 75.404C152.301 75.8349 153.129 76.2445 153.928 76.6462L152.629 79.3938C151.771 78.9764 150.914 78.559 150.072 78.0833C148.787 77.395 147.547 76.6561 146.343 75.8959L146.306 75.9173ZM159.25 82.106L160.244 79.2142C161.475 79.6378 162.722 80.0032 163.976 80.3393C164.939 80.5973 165.873 80.8474 166.851 81.0471L166.207 84.0327C165.2 83.8252 164.2 83.5886 163.179 83.315C161.866 82.9632 160.561 82.5824 159.272 82.1431L159.25 82.106ZM173.566 82.1271C175.818 82.3555 178.132 82.4749 180.418 82.4621L180.447 85.503C178.066 85.5216 175.628 85.4 173.288 85.1482L173.603 82.1057L173.566 82.1271ZM187.245 82.0714C189.498 81.831 191.791 81.4446 194.011 80.9764L194.65 83.9617C192.326 84.4647 189.938 84.8568 187.56 85.0952L187.216 82.0636L187.245 82.0714ZM200.62 79.1827C202.787 78.4499 204.947 77.6217 207.007 76.7039L208.264 79.4798C206.094 80.4617 203.859 81.3326 201.59 82.1003L200.642 79.2197L200.62 79.1827ZM213.053 73.5088C215.022 72.3477 216.905 71.0387 218.708 69.677L220.565 72.082C218.672 73.5447 216.686 74.8887 214.636 76.1216L213.053 73.5088Z" fill="#1C594F"/>
<path d="M24.4906 43.5584L23.9183 40.5596L9.13067 43.3513L7.44815 28.3918L4.40873 28.7656L6.47648 46.9552L24.4906 43.5584Z" fill="#1C594F"/>
</g>
</svg>
