<svg width="225" height="103" viewBox="0 0 225 103" fill="none" xmlns="http://www.w3.org/2000/svg">
<g opacity="0.8">
<path d="M217.628 43.2789C216.291 41.3233 214.829 39.3697 213.224 37.5798L210.921 39.604C212.415 41.3299 213.837 43.1375 215.085 44.9921L217.598 43.2867L217.628 43.2789ZM208.192 32.4553C206.422 30.866 204.55 29.3663 202.578 27.9562L200.803 30.433C202.656 31.7499 204.483 33.1991 206.135 34.6952L208.184 32.4262L208.192 32.4553ZM196.521 24.1385C194.457 22.9717 192.271 21.9314 190.079 20.9865L188.896 23.8052C191.013 24.7073 193.067 25.7204 195.049 26.8153L196.521 24.1385ZM183.348 18.5062C181.065 17.8047 178.718 17.2141 176.402 16.7402L175.801 19.7468C178.043 20.178 180.257 20.7415 182.445 21.4374L183.348 18.5062ZM169.316 15.7312C166.946 15.5219 164.512 15.4237 162.146 15.4635L162.183 18.518C164.453 18.4724 166.762 18.5728 169.037 18.7763L169.316 15.7312ZM154.967 15.9799C152.577 16.2765 150.196 16.7269 147.912 17.3074L148.644 20.2696C150.839 19.7125 153.104 19.2934 155.37 18.9989L154.967 15.9799ZM142.128 22.328L141.026 19.4966C138.988 20.2928 137.01 21.198 135.114 22.1749L134.483 22.5006L135.92 25.1799L136.522 24.862C138.301 23.9163 140.199 23.0638 142.099 22.3358L142.128 22.328ZM130.097 28.7725L128.392 26.2589C126.516 27.5433 124.583 28.9678 122.69 30.5382L124.606 32.9017C126.456 31.4053 128.309 30.0334 130.134 28.7939L130.097 28.7725ZM119.348 37.4373L117.282 35.2082C115.55 36.7979 113.863 38.438 112.192 40.1366L114.36 42.276C115.981 40.6223 117.646 39.0191 119.356 37.4665L119.348 37.4373ZM109.506 47.2663L107.287 45.1717C105.941 46.5644 104.631 47.9785 103.292 49.4003L102.465 50.2787L104.683 52.3733L105.511 51.4949C106.821 50.0809 108.167 48.6882 109.477 47.2741L109.506 47.2663ZM99.8603 57.4804L97.6711 55.3779C96.0583 57.0608 94.4376 58.7146 92.7722 60.3178L94.8897 62.5021C96.5764 60.8619 98.2184 59.1711 99.8603 57.4804ZM89.6813 67.3371L87.6572 65.0341C85.8594 66.6102 84.0673 68.0909 82.3237 69.4024L84.1593 71.8186C85.9535 70.4623 87.7961 68.9367 89.6735 67.308L89.6813 67.3371ZM78.3159 75.9171L76.6824 73.3217C75.5296 74.0371 74.3397 74.7311 73.1129 75.4038C72.3215 75.8347 71.4932 76.2443 70.6941 76.646L71.9931 79.3936C72.8506 78.9762 73.7081 78.5588 74.5499 78.0831C75.8351 77.3948 77.0755 76.6559 78.2789 75.8957L78.3159 75.9171ZM65.3717 82.1058L64.378 79.2139C63.1469 79.6376 61.9003 80.0029 60.6458 80.339C59.683 80.597 58.7495 80.8472 57.7711 81.0468L58.4147 84.0324C59.4223 83.825 60.422 83.5884 61.4431 83.3148C62.756 82.963 64.061 82.5821 65.3504 82.1428L65.3717 82.1058ZM51.0563 82.1268C48.8036 82.3552 46.4905 82.4747 44.2044 82.4619L44.175 85.5028C46.5564 85.5213 48.994 85.3998 51.3342 85.1479L51.0193 82.1054L51.0563 82.1268ZM37.377 82.0712C35.1238 81.8307 32.8315 81.4444 30.611 80.9762L29.9725 83.9614C32.2961 84.4645 34.6838 84.8566 37.0616 85.095L37.4062 82.0634L37.377 82.0712ZM24.0017 79.1825C21.8354 78.4496 19.6749 77.6215 17.6154 76.7037L16.358 79.4796C18.5285 80.4614 20.763 81.3323 23.0325 82.1L23.9804 79.2195L24.0017 79.1825ZM11.5687 73.5085C9.6003 72.3474 7.71738 71.0384 5.91416 69.6767L4.05711 72.0818C5.94994 73.5445 7.936 74.8884 9.98615 76.1214L11.5687 73.5085Z" fill="#1E6A5D"/>
<path d="M200.131 43.558L200.703 40.5592L215.491 43.3509L217.173 28.3914L220.213 28.7652L218.145 46.9548L200.131 43.558Z" fill="#1E6A5D"/>
</g>
</svg>
