<svg width="77" height="52" viewBox="0 0 77 52" fill="none" xmlns="http://www.w3.org/2000/svg">
<g clip-path="url(#clip0_273_380)">
<path d="M75.2994 8.00658C74.8578 6.45903 73.9963 5.04819 72.8007 3.91453C71.6051 2.78088 70.1171 1.96396 68.4849 1.54513C62.5096 0 38.461 0 38.461 0C38.461 0 14.4111 0.0467702 8.43577 1.5919C6.80358 2.01076 5.31559 2.82771 4.11999 3.96142C2.92439 5.09513 2.06288 6.50604 1.62127 8.05363C-0.186126 18.1201 -0.887247 33.4591 1.6709 43.1229C2.11256 44.6704 2.97408 46.0812 4.16968 47.2149C5.36528 48.3486 6.85324 49.1655 8.4854 49.5843C14.4607 51.1294 38.51 51.1294 38.51 51.1294C38.51 51.1294 62.5589 51.1294 68.534 49.5843C70.1662 49.1655 71.6542 48.3486 72.8499 47.215C74.0455 46.0813 74.9071 44.6704 75.3488 43.1229C77.2551 33.0421 77.8425 17.7126 75.2994 8.00658Z" fill="#FF0000"/>
<path d="M30.8071 36.5213L50.7573 25.565L30.8071 14.6088V36.5213Z" fill="white"/>
</g>
<defs>
<clipPath id="clip0_273_380">
<rect width="77" height="51.3333" fill="white"/>
</clipPath>
</defs>
</svg>
